<?xml version="1.0" encoding="UTF-8"?><svg id="Layer_2" xmlns="http://www.w3.org/2000/svg" viewBox="0 0 450 450"><defs><style>.cls-1{fill:#fff;}.cls-2{fill:#7a95c2;stroke:#000;stroke-miterlimit:10;stroke-width:3px;}</style></defs><g><path class="cls-2" d="m27.25,132.7l91,34-13-84,65,45,26-99,37,91,48-51,9,60,113-57-66,99,91,25-74,55,34,87-71-30v92l-68-78-56,81-16-75-105,94,53-142-109-24,37.15-10.05c15.95-4.32,31.9-8.63,47.85-12.95-24.67-33.33-49.33-66.67-74-100Z"/><polygon class="cls-1" points="195.82 64 174.39 151.23 118.23 107.61 128.74 178.14 55.13 153.08 117.55 238.46 52 252.48 137.12 271.86 92.4 386 181.84 308.05 195.82 366.29 245.2 301.56 301.1 372.08 301.1 288.99 359.8 317.33 331.85 244.02 398 199.48 314.15 179.99 363.53 102.97 270.36 153.08 269.56 93.22 235.88 133.6 225 146.43 195.82 64"/><g><path d="m149.96,261.46c-2.38.5-6.2-.79-11.44-3.86l-8.46-5.29.07.32,2.46,11.79c.31,1.48-.21,2.37-1.57,2.66-.89.19-1.69-.04-2.38-.67-.57-.52-.93-1.14-1.08-1.86-.74-3.51-1.74-8.78-2.99-15.82-1.25-7.04-2.25-12.3-2.99-15.8-.14-.64-.03-1.24.32-1.78.35-.54.86-.89,1.51-1.02.67-.14,1.28-.03,1.82.32.54.36.88.86,1.02,1.5.31,1.46.69,3.74,1.15,6.85.44,3.01.83,5.3,1.18,6.87,1.7-2.35,3.57-5.24,5.61-8.68l5.17-8.92c.41-.7.94-1.11,1.6-1.25.63-.13,1.23-.02,1.81.32s.94.84,1.08,1.49c.21.99-1.26,4.06-4.39,9.2-2.17,3.51-4.45,6.99-6.84,10.42,2.28,1.49,5.8,3.59,10.55,6.28l2.88,1.46c1.03.47,2.1.76,3.2.88,1.32.13,2.1.74,2.33,1.84.11.51.04,1.03-.19,1.57-.29.66-.77,1.05-1.44,1.2Z"/><path d="m155.25,260.6c-.41.09-.82.04-1.23-.14-.41-.18-.65-.44-.71-.79-.11-.77.34-1.86,1.38-3.25.12-.15.25-.33.4-.55-1.5-1.58-2.54-3.59-3.14-6.04-.81-3.37-.55-6.54.79-9.52,1.55-3.51,4.29-5.67,8.2-6.5,2.44-.52,4.61-.09,6.51,1.28l.29-.48c1.08-1.86,1.8-2.82,2.16-2.9.38-.08.74,0,1.08.22.34.23.55.52.63.88.06.3-.42,1.37-1.46,3.2-.05.09-.26.46-.65,1.1,1.46,1.88,2.46,4.2,2.98,6.94.66,3.34.35,6.37-.93,9.1-1.44,3.09-3.82,4.99-7.12,5.68-2.55.54-4.95.13-7.18-1.23-.24.4-.38.63-.42.7-.71,1.46-1.23,2.23-1.58,2.31Zm2.45-8.88c1.53-2.53,4.01-6.74,7.45-12.64-.98-.7-2.17-.92-3.55-.64-2.31.47-3.87,1.9-4.69,4.28-.68,1.91-.79,3.96-.33,6.13.23,1.11.61,2.07,1.12,2.87Zm9.25-10.36l-7.36,12.24c1.24.74,2.53.97,3.88.69,1.63-.34,2.91-1.21,3.85-2.6,1.06-1.55,1.41-3.41,1.04-5.55-.33-1.97-.8-3.56-1.4-4.78Z"/><path d="m191.82,252.66c-2.4.5-4.67.51-6.82.03-.35.83-.89,1.31-1.61,1.47-.6.12-1.14.03-1.64-.28-.5-.31-.81-.76-.94-1.36-.08-.39-.18-.97-.31-1.74-.12-.77-.22-1.36-.31-1.75-.34-1.59-.88-3.96-1.64-7.12-.75-3.16-1.3-5.53-1.63-7.12-.23-1.09-.66-3.17-1.29-6.23-.63-3.06-1.06-5.14-1.29-6.25-.19-.9-.16-1.75.08-2.55.32-1.02.94-1.63,1.85-1.82,1.17-.25,1.9.28,2.17,1.59.04.21.07.53.08.95,0,.42.03.74.08.95l.97,4.94,1.16,5.75c1.18-1.17,2.33-2.11,3.47-2.81,1.14-.7,2.25-1.17,3.33-1.39,3.37-.71,6.36-.05,8.98,1.98,2.46,1.91,4.05,4.56,4.77,7.95.72,3.42.18,6.57-1.62,9.44-1.8,2.87-4.42,4.67-7.85,5.39Zm-3.39-20.51c-1.29.27-2.53.89-3.73,1.87-.58.48-1.56,1.46-2.91,2.94l.77,3.9.76,3.51.8,3.68c.82.17,1.97.37,3.44.59,1.03.08,2.15,0,3.36-.26,2.27-.48,3.97-1.64,5.11-3.47,1.13-1.84,1.46-3.89.98-6.17-.47-2.23-1.45-3.98-2.94-5.23-1.61-1.35-3.49-1.8-5.64-1.35Z"/><path d="m220.39,246.73c-3.54.75-6.59.5-9.14-.73-2.79-1.37-4.54-3.74-5.26-7.12-.82-3.9-.52-7.38.89-10.43,1.54-3.33,4.1-5.38,7.69-6.13,2.6-.55,4.81-.58,6.63-.08,2.24.61,3.58,1.99,4.04,4.13.32,1.5-.28,3.05-1.79,4.66-.67.7-2.15,1.89-4.45,3.57l-8.12,5.96c1.14,1.06,2.43,1.77,3.87,2.12,1.44.35,3.03.35,4.77-.02,1.08-.23,2.31-.69,3.68-1.39,1.74-.88,2.8-1.79,3.16-2.7.36-.91.85-1.44,1.46-1.56.55-.12,1.08-.02,1.59.29.51.31.83.72.94,1.25.35,1.67-.75,3.39-3.3,5.18-2.18,1.53-4.41,2.53-6.68,3.01Zm-4.96-20.36c-1.91.4-3.35,1.45-4.32,3.13-.97,1.69-1.47,4.02-1.49,7l6.52-4.81c2.56-1.92,4.34-3.49,5.34-4.72-1.6-.92-3.62-1.12-6.04-.61Z"/><path d="m253.93,240.25c-1.35.28-2.26-.26-2.73-1.63l-1.7-4.79c-.59-1.71-1.04-3.33-1.37-4.86-.09-.42-.21-1.14-.37-2.15-.16-1.02-.28-1.74-.37-2.16-.68-3.24-1.65-4.73-2.9-4.46-1.75.37-3.22,1.72-4.4,4.05-1.06,2.12-1.7,4.65-1.93,7.6.09.59.18,1.34.25,2.25.06.77.17,1.51.32,2.21.1.45.28,1.12.57,2,.28.88.47,1.54.57,1.99.14.67.04,1.27-.3,1.78-.34.51-.85.84-1.52.98-.69.15-1.29.05-1.8-.28-.51-.33-.84-.83-.98-1.51-.09-.45-.29-1.11-.58-1.99-.29-.88-.49-1.54-.58-1.99-.33-1.54-.66-3.71-1.01-6.5-.35-2.79-.69-4.95-1.01-6.5-.1-.48-.28-1.19-.53-2.12-.25-.93-.43-1.64-.53-2.12-.14-.65-.02-1.22.33-1.73.36-.51.87-.83,1.53-.97,1.44-.3,2.44.5,2.99,2.42l.63,2.62c1.92-3.91,4.27-6.16,7.04-6.75,2.51-.53,4.48.16,5.91,2.07.97,1.27,1.78,3.28,2.42,6.02l.48,2.27.42,2.1c.26,1.25.77,2.82,1.52,4.72.75,1.9,1.26,3.47,1.52,4.7.14.66.03,1.24-.33,1.75-.36.51-.88.83-1.55.97Z"/><path d="m280.72,234.39c-1.11.23-1.96-.18-2.54-1.25-.62-1.15-1.32-2.83-2.09-5.03-.74-2.12-1.26-3.87-1.55-5.27-.08-.39-.19-.99-.32-1.79-.13-.8-.23-1.4-.32-1.79-.59-2.82-1.63-4.08-3.1-3.77-1.99.42-3.59,1.66-4.79,3.71-.61,1.05-1.35,2.97-2.22,5.76,1.21,5.71,1.67,9.15,1.39,10.31-.24,1.02-.83,1.63-1.75,1.83-.64.14-1.25.04-1.83-.27-.58-.32-.92-.78-1.05-1.38-.04-.21-.04-.56,0-1.04.04-.4-.1-1.52-.43-3.34l-.63-3.34-3.42-16.55c-.28-1.88-.49-3.15-.63-3.79-.16-.77-.39-1.47-.68-2.12-.29-.65-.52-1.34-.67-2.08-.13-.63-.02-1.2.35-1.71.37-.51.88-.83,1.54-.97,1.28-.27,2.17.23,2.67,1.5.56,1.4.96,2.69,1.21,3.86.33,1.58.62,3.23.87,4.96.25,1.66.56,3.31.92,4.95l.44,1.97c.94-1.92,2.05-3.44,3.34-4.57,1.29-1.13,2.76-1.86,4.41-2.21,2.6-.55,4.56-.11,5.87,1.3.93,1,1.73,2.83,2.39,5.51l1.09,4.26,1.46,4.58c.59,1.71,1.18,3.2,1.78,4.47.12.24.19.45.23.63.13.62,0,1.18-.38,1.69-.38.51-.9.84-1.56.98Z"/><path d="m307.23,228.89c-.3.06-.91-.15-1.83-.65-.83-.47-1.48-.9-1.92-1.31-1.34,1.1-2.54,1.96-3.6,2.6-1.06.64-1.97,1.04-2.74,1.2-3.67.77-6.55.34-8.64-1.28-1.97-1.53-3.37-4.21-4.18-8.05-.77-3.63-.12-7.01,1.95-10.14,2.06-3.13,4.91-5.08,8.53-5.84,1.36-.29,2.96-.27,4.79.05,2.31.39,3.59,1.18,3.84,2.36.09.41,0,.8-.24,1.18-.04.6.04,1.57.23,2.89.19,1.32.49,3.01.91,5.05.38,1.86.82,3.3,1.33,4.33.29.63,1.07,1.84,2.32,3.65.17.25.43.61.79,1.08l.22.35c.13.6.01,1.14-.34,1.62-.36.48-.82.79-1.4.91Zm-8.19-14.61c-.14-.64-.24-1.35-.31-2.13-.07-.78-.11-1.61-.12-2.5-.64-.16-1.18-.27-1.62-.32-.44-.05-.79-.04-1.04,0-2.43.51-4.32,1.9-5.69,4.17-1.36,2.27-1.78,4.64-1.26,7.12.52,2.46,1.36,4.21,2.53,5.25,1.17,1.04,2.66,1.37,4.48.98,1.5-.32,2.73-.85,3.67-1.59.5-.4,1.17-1.14,2.01-2.21-1.34-3.87-2.22-6.79-2.63-8.77Z"/><path d="m323.78,222.63c.24,1.39-.32,2.23-1.7,2.52-1.14.24-2.11-.23-2.9-1.41l-5.52-8.38-6.36-9.45c-.24-.36-.39-.69-.45-.99-.13-.61,0-1.19.4-1.73s.91-.87,1.55-1.01c.94-.2,1.71.12,2.31.95l9.28,14.47c.67-2.65,1.42-6.44,2.24-11.38.17-1.29.48-3.12.92-5.51.28-1.06.87-1.69,1.77-1.88.64-.14,1.25-.04,1.83.3.58.33.93.8,1.06,1.4.12.57-.5,4.05-1.85,10.45l-2.58,11.64Z"/><path d="m354.96,218.95c-1.35.28-2.26-.26-2.73-1.63l-1.7-4.79c-.59-1.71-1.05-3.33-1.37-4.86-.09-.42-.21-1.14-.37-2.16-.16-1.02-.28-1.74-.37-2.16-.68-3.24-1.65-4.73-2.9-4.46-1.76.37-3.22,1.72-4.4,4.05-1.06,2.12-1.7,4.65-1.93,7.6.09.59.18,1.34.25,2.25.06.77.17,1.51.32,2.21.09.45.28,1.12.57,2,.28.88.47,1.54.57,1.99.14.67.04,1.27-.3,1.78-.34.51-.85.84-1.52.98-.69.14-1.29.05-1.8-.28-.51-.33-.84-.83-.98-1.51-.1-.45-.29-1.11-.58-1.99-.29-.88-.49-1.54-.58-1.99-.33-1.54-.66-3.71-1.01-6.5s-.69-4.95-1.01-6.5c-.1-.48-.28-1.19-.53-2.12-.25-.93-.43-1.64-.53-2.12-.14-.65-.02-1.22.34-1.73.36-.51.87-.83,1.53-.97,1.44-.3,2.44.5,2.99,2.42l.62,2.62c1.92-3.91,4.27-6.16,7.04-6.75,2.51-.53,4.48.16,5.91,2.07.97,1.27,1.78,3.28,2.42,6.02l.48,2.27.42,2.1c.26,1.25.77,2.82,1.52,4.72.75,1.9,1.26,3.47,1.52,4.7.14.66.03,1.24-.33,1.75-.36.51-.88.83-1.55.97Z"/></g></g><g><path d="m173.64,282.99c-1.02.21-2.65-.37-4.91-1.76l-3.64-2.39.03.14,1.1,5.26c.14.66-.08,1.05-.66,1.18-.38.08-.72-.02-1.02-.31-.25-.23-.4-.51-.47-.83-.33-1.56-.78-3.92-1.34-7.05-.56-3.14-1.01-5.49-1.34-7.04-.06-.29-.02-.55.13-.79.15-.24.36-.39.64-.45.29-.06.55-.01.78.15.23.16.38.38.44.67.14.65.31,1.67.52,3.06.2,1.34.38,2.36.53,3.06.72-1.04,1.51-2.32,2.37-3.84l2.17-3.95c.17-.31.4-.49.68-.55.27-.06.53,0,.78.15.25.16.41.38.46.67.09.44-.52,1.8-1.84,4.08-.92,1.56-1.88,3.09-2.88,4.61.98.67,2.49,1.62,4.54,2.84l1.24.66c.44.22.9.35,1.37.4.57.06.9.34,1,.83.05.23.02.46-.07.7-.12.29-.32.47-.61.53Z"/><path d="m179.81,281.88c-1.12.24-2.18.03-3.16-.63-1.1-.73-1.83-1.88-2.21-3.42-.36-1.5-.26-2.91.3-4.23.65-1.55,1.81-2.51,3.48-2.86,1.34-.28,2.48.12,3.43,1.2.76.87,1.27,2.01,1.55,3.4.29,1.49.17,2.84-.36,4.05-.61,1.37-1.61,2.21-3.02,2.5Zm-1.29-9.09c-.99.2-1.65.83-2,1.89-.28.85-.31,1.75-.11,2.72.21.97.63,1.67,1.27,2.1.54.35,1.1.47,1.7.34.7-.15,1.24-.53,1.63-1.14.45-.68.59-1.5.42-2.47-.45-2.61-1.42-3.76-2.92-3.45Z"/><path d="m192.98,270.74c.13.85-.12,1.34-.74,1.47-.58.12-.93-.15-1.07-.81-.03-.13-.09-.36-.18-.7l-.21-.84c-1.03.35-1.81.83-2.35,1.43-.5.56-.86,1.32-1.07,2.28l1.18,5.49c.14.68-.12,1.08-.78,1.22-.59.12-.95-.15-1.1-.83l-1.48-7.04c-.05-.22-.11-.55-.18-1-.08-.45-.14-.78-.18-1-.14-.68.08-1.08.67-1.2.66-.14,1.1.35,1.34,1.46,1.02-1.51,2.32-2.43,3.88-2.76.54-.12.99,0,1.34.36s.62.94.79,1.76c.07.35.12.58.14.7Z"/><path d="m201.52,267.75c-.14.03-.31.06-.5.09-.19.03-.36.05-.5.08-.15.03-.6.18-1.33.44l1.44,5.89.1.44.12.51c.34,1.46.14,2.27-.59,2.42-.27.06-.52.02-.75-.11s-.38-.33-.43-.59c-.05-.25-.12-.64-.21-1.15-.09-.51-.16-.9-.21-1.15l-1.44-5.82c-.49.08-1.25.18-2.26.3-.61.04-.98-.22-1.1-.8-.06-.29-.02-.56.12-.79s.35-.38.63-.44l2.14-.27c-.07-.34-.18-.79-.33-1.36-.15-.57-.25-.98-.31-1.23-.06-.28-.01-.53.14-.76.16-.22.37-.37.65-.42.6-.13,1.06.29,1.36,1.25.07.24.15.54.22.89l.1.59.12.62c.81-.28,1.27-.44,1.39-.46.7-.15,1.16-.21,1.39-.19.44.05.71.32.81.82.06.29.02.55-.12.79-.14.23-.36.37-.65.43Z"/><path d="m210.7,269.77c-.89.29-2.5.67-4.83,1.17-.56.12-.9-.08-1.01-.61-.11-.52.12-.84.68-.96.53-.11,1.32-.3,2.36-.57,1.05-.27,1.83-.46,2.36-.57.6-.13.95.07,1.06.6.1.46-.11.78-.63.95Z"/><path d="m221.8,259.44c-.14-.67-.01-1.43.39-2.28.43-.91.97-1.43,1.62-1.57.76-.16,1.42-.02,1.96.42.51.4.85,1,1.01,1.78.29,1.36-.25,2.81-1.61,4.36.75,1.02,1.85,2.28,3.28,3.76.06-.4.08-.8.06-1.21-.04-.7-.05-1.14-.04-1.32.06-.59.27-.92.63-.99.28-.06.53.04.76.31.19.22.31.48.38.79.29,1.36.2,2.69-.25,3.99,1.49,1.52,2.26,2.44,2.33,2.77.05.24,0,.47-.16.68-.16.21-.35.34-.59.39-.3.06-.59-.05-.88-.35l-1.57-1.75c-1.07,1.59-2.44,2.57-4.1,2.92-1.25.26-2.4.1-3.44-.48-1.1-.61-1.78-1.52-2.04-2.76-.27-1.3-.03-2.58.73-3.85.44-.74,1.3-1.76,2.6-3.08-.53-.83-.89-1.67-1.07-2.53Zm2.17,4c-.99,1.01-1.65,1.77-1.97,2.27-.64.98-.86,1.92-.67,2.81.15.73.57,1.26,1.25,1.6.63.31,1.32.38,2.07.22,1.35-.29,2.4-1.1,3.14-2.45-.67-.65-1.94-2.14-3.81-4.46Zm.19-2.9c.71-.89.99-1.68.84-2.38-.06-.31-.17-.53-.3-.65-.13-.13-.31-.17-.51-.13-.12.03-.26.28-.41.75-.16.48-.22.78-.19.93.09.45.29.94.57,1.48Z"/><path d="m247.5,253.22c-.12.03-.25.03-.4,0-.89-.13-2.02-.05-3.39.23-.44.09-.95.23-1.53.42-.58.19-1.22.43-1.93.72l.89,4.34c1.22-.61,2.15-.99,2.8-1.12,1.03-.22,2.11-.38,3.24-.49.64-.07,1.03.21,1.16.82.06.3.02.57-.13.81-.15.24-.37.39-.66.45-.35.07-.88.15-1.58.24-.71.09-1.24.17-1.58.24-.46.1-1.4.5-2.83,1.2l1.37,6.92c.06.29.02.55-.13.79-.15.24-.36.39-.65.45-.29.06-.55.01-.78-.14-.23-.16-.38-.38-.44-.67-.28-1.32-.67-3.3-1.18-5.95-.5-2.65-.9-4.63-1.18-5.95-.06-.29-.16-.73-.29-1.33-.13-.59-.23-1.03-.29-1.33-.06-.29-.02-.56.12-.8.14-.24.36-.39.65-.45.22-.05.43-.03.63.06.8-.32,1.52-.59,2.17-.8.65-.21,1.22-.37,1.72-.47.77-.16,1.67-.24,2.71-.22,1.41.02,2.17.28,2.27.78.06.27.02.52-.11.77-.14.27-.36.44-.65.5Z"/><path d="m252.28,252.71c-.32.07-.62.01-.91-.17-.28-.18-.46-.43-.52-.75-.07-.32,0-.62.18-.9.19-.28.44-.45.76-.52s.62-.01.9.17c.28.18.45.43.52.75.07.32,0,.62-.17.9-.18.28-.43.45-.75.52Zm2.17,8.05c.08.4.22,1,.41,1.79.19.79.33,1.39.42,1.79.06.29.02.55-.12.78-.14.23-.36.37-.65.43-.29.06-.54.02-.77-.13-.22-.15-.37-.37-.43-.66-.08-.4-.22-1-.41-1.79-.19-.79-.33-1.39-.42-1.79-.13-.63-.26-1.42-.4-2.37-.13-.95-.26-1.74-.4-2.38-.06-.3-.02-.56.12-.79s.36-.37.65-.43c.29-.06.54-.02.77.13.22.15.37.38.43.67.13.63.26,1.42.39,2.38.13.95.26,1.75.4,2.37Z"/><path d="m266.15,258.54l.48,3.42c.24,1.35.34,2.47.28,3.37-.07,1.15-.38,2.05-.94,2.7-.67.79-1.77,1.35-3.28,1.67-.89.19-1.65.28-2.28.29-.88,0-1.37-.25-1.48-.78-.13-.59.1-.96.68-1.08.24-.05.65-.08,1.24-.08.59,0,1.22-.08,1.9-.24,1.28-.29,2.04-1.1,2.27-2.43.15-.88.06-2.17-.28-3.87-.22.75-.54,1.34-.97,1.78-.43.44-.96.72-1.6.86-1.21.25-2.28.05-3.22-.62-.93-.67-1.54-1.66-1.82-2.97-.38-1.81-.17-3.37.64-4.69.83-1.36,2.17-2.24,4.01-2.63.62-.13,1.16-.16,1.62-.09s.83.25,1.12.52c.72-.13,1.16.19,1.33.97.1.47.16,1.12.19,1.95.04.96.08,1.61.13,1.94Zm-4.14-3.66c-1.27.27-2.16.91-2.67,1.94-.46.92-.55,1.99-.3,3.21.2.97.54,1.66,1.01,2.07.47.41,1.08.54,1.81.38.68-.14,1.25-.66,1.73-1.56.43-.82.61-1.59.54-2.29-.01-.75-.1-1.92-.27-3.5-.31-.15-.62-.25-.93-.28-.31-.04-.62-.03-.92.04Z"/><path d="m276.66,254.72c.1.48.26,1.2.47,2.16.21.96.37,1.68.47,2.17.03.15.09.37.18.67.09.29.15.52.18.67.06.29.01.54-.14.77-.16.23-.37.37-.65.43-.52.11-.91-.14-1.18-.75-.74.61-1.66,1.03-2.75,1.26-.88.18-1.64.14-2.3-.12-.73-.29-1.24-.84-1.53-1.64-.63-1.72-1.1-3.27-1.39-4.65-.19-.92-.31-1.98-.36-3.19-.03-.6.23-.96.77-1.07.29-.06.55-.02.78.12.23.14.38.36.44.65.07.31.12.81.17,1.5.05.7.11,1.22.18,1.58.24,1.12.47,2.07.72,2.85.24.78.49,1.4.73,1.85.25.07.48.12.71.14.23.02.44,0,.65-.04.9-.19,1.81-.53,2.75-1.03l-.44-2.04-.43-1.94c-.3-1.45-.5-2.71-.6-3.8-.06-.63.2-1.01.78-1.13.29-.06.55-.02.78.13s.37.36.42.65l.62,3.83Z"/><path d="m286.64,250.99c.13.85-.12,1.34-.74,1.47-.58.12-.93-.15-1.07-.81-.03-.13-.09-.36-.18-.7l-.21-.84c-1.03.35-1.81.83-2.35,1.43-.5.56-.86,1.32-1.07,2.28l1.18,5.49c.14.68-.12,1.08-.78,1.22-.59.12-.95-.15-1.1-.83l-1.48-7.04c-.05-.22-.11-.55-.18-1-.08-.44-.14-.78-.18-1-.14-.68.08-1.08.67-1.2.66-.14,1.1.35,1.34,1.46,1.02-1.51,2.32-2.43,3.88-2.76.54-.11.99,0,1.34.36s.62.94.79,1.76c.07.35.12.58.14.7Z"/><path d="m295.41,248.82c-.37.08-.65,0-.85-.21-.14-.15-.3-.49-.49-1.03-.47.23-1.2.63-2.17,1.19-.99.65-1.42,1.3-1.29,1.93.22.03.42.04.62.04,1.6-.05,2.82.09,3.67.41,1.24.47,2,1.37,2.28,2.71.23,1.09-.07,2.01-.89,2.77-.69.62-1.63,1.05-2.83,1.31-.88.19-1.74.21-2.6.09-1.11-.16-1.73-.57-1.88-1.24-.06-.27,0-.52.17-.77.17-.25.39-.4.65-.45.21-.04.51.06.9.31.19.12.58.17,1.16.15.46-.02.85-.05,1.16-.12.56-.12,1.04-.29,1.44-.51.58-.33.83-.7.74-1.12-.19-.91-.96-1.39-2.3-1.44h-1.09c-.93-.02-1.61-.11-2.04-.29-.62-.26-1.01-.77-1.17-1.52-.29-1.4.15-2.54,1.35-3.41.36-.26.96-.62,1.79-1.05s1.42-.78,1.76-1.04c.25-.18.53-.3.85-.37.29-.06.54-.02.77.13.22.15.37.37.43.67.04.2.14.47.31.83.16.36.26.63.3.83.06.3.02.56-.12.79s-.36.37-.65.43Z"/><path d="m304.61,255.32c-.67.14-1.43.19-2.28.14l.99,4.8c.06.29.02.55-.12.78-.14.23-.36.37-.65.43-.29.06-.54.02-.77-.13s-.37-.37-.43-.66l-.82-4.02-.84-4c-.33-1.46-.66-2.79-.99-3.97l-.58-2c-.1-.48-.1-.9,0-1.26.12-.44.37-.7.75-.78.26-.05.5,0,.72.14.22.15.35.35.41.62.01.06.03.17.04.34,0,.22.03.41.05.59.49-.52.98-.93,1.48-1.24.49-.31.98-.52,1.47-.62,1.37-.29,2.5.11,3.4,1.19.7.86,1.22,2.08,1.56,3.66.3,1.44.17,2.72-.41,3.82-.61,1.16-1.61,1.89-2.98,2.18Zm-1.14-8.85c-.62.13-1.14.38-1.58.76-.31.27-.69.72-1.12,1.35.41,1.5.79,3.08,1.14,4.76.79.13,1.55.11,2.28-.04.84-.18,1.41-.62,1.72-1.34.27-.62.31-1.37.13-2.23-.26-1.22-.6-2.1-1.02-2.64-.43-.54-.94-.75-1.54-.62Z"/><path d="m310.5,240.44c-.32.07-.62.01-.91-.17s-.46-.43-.52-.75c-.07-.32,0-.62.18-.9.19-.28.44-.45.76-.52.32-.07.62-.01.9.17.28.18.45.43.52.75.07.32.01.62-.17.9-.18.28-.44.45-.76.52Zm2.17,8.05c.08.4.22,1,.42,1.79.19.79.33,1.39.42,1.79.06.3.02.56-.12.78-.14.23-.36.37-.65.43-.29.06-.54.02-.77-.13-.22-.15-.37-.37-.43-.66-.08-.4-.22-1-.42-1.79s-.33-1.39-.41-1.79c-.13-.63-.26-1.42-.4-2.37-.13-.95-.26-1.74-.4-2.38-.06-.3-.02-.56.12-.79.14-.23.36-.37.65-.43.29-.06.54-.02.77.13.22.15.37.37.43.67.13.63.26,1.42.4,2.38.13.95.26,1.75.39,2.37Z"/><path d="m317.9,243.91l.9,5.02c.11.53.25,1.31.41,2.35.07.68-.18,1.09-.77,1.21-.66.14-1.05-.13-1.2-.82-.17-.81-.39-2.03-.66-3.67-.27-1.64-.49-2.86-.66-3.67-.22-1.06-.46-2.27-.71-3.64s-.49-2.58-.71-3.64c-.14-.67.12-1.07.77-1.21.66-.14,1.06.13,1.21.79.22,1.06.46,2.27.71,3.64.25,1.37.49,2.58.71,3.64Z"/></g></svg>