<?xml version="1.0" encoding="UTF-8"?><svg id="Layer_2" xmlns="http://www.w3.org/2000/svg" viewBox="0 0 450 450"><defs><style>.cls-1{fill:#fff;}.cls-2{fill:#7a95c2;stroke:#000;stroke-miterlimit:10;stroke-width:3px;}</style></defs><g><path class="cls-2" d="m27.25,132.7l91,34-13-84,65,45,26-99,37,91,48-51,9,60,113-57-66,99,91,25-74,55,34,87-71-30v92l-68-78-56,81-16-75-105,94,53-142-109-24,37.15-10.05c15.95-4.32,31.9-8.63,47.85-12.95-24.67-33.33-49.33-66.67-74-100Z"/><polygon class="cls-1" points="196.16 70 174.97 153.98 119.47 111.99 129.85 179.88 57.09 155.76 118.8 237.95 54 251.45 138.14 270.12 93.93 380 182.34 304.96 196.16 361.03 244.97 298.7 300.22 366.6 300.22 286.61 358.24 313.89 330.61 243.31 396 200.43 313.12 181.67 361.93 107.52 269.83 155.76 269.04 98.13 235.76 137 225 149.36 196.16 70"/><g><path d="m149.96,261.46c-2.38.5-6.2-.79-11.44-3.86l-8.46-5.29.07.32,2.46,11.79c.31,1.48-.21,2.37-1.57,2.66-.89.19-1.69-.04-2.38-.67-.57-.52-.93-1.14-1.08-1.86-.74-3.51-1.74-8.78-2.99-15.82-1.25-7.04-2.25-12.3-2.99-15.8-.14-.64-.03-1.24.32-1.78.35-.54.86-.89,1.51-1.02.67-.14,1.28-.03,1.82.32.54.36.88.86,1.02,1.5.31,1.46.69,3.74,1.15,6.85.44,3.01.83,5.3,1.18,6.87,1.7-2.35,3.57-5.24,5.61-8.68l5.17-8.92c.41-.7.94-1.11,1.6-1.25.63-.13,1.23-.02,1.81.32s.94.84,1.08,1.49c.21.99-1.26,4.06-4.39,9.2-2.17,3.51-4.45,6.99-6.84,10.42,2.28,1.49,5.8,3.59,10.55,6.28l2.88,1.46c1.03.47,2.1.76,3.2.88,1.32.13,2.1.74,2.33,1.84.11.51.04,1.03-.19,1.57-.29.66-.77,1.05-1.44,1.2Z"/><path d="m155.25,260.6c-.41.09-.82.04-1.23-.14-.41-.18-.65-.44-.71-.79-.11-.77.34-1.86,1.38-3.25.12-.15.25-.33.4-.55-1.5-1.58-2.54-3.59-3.14-6.04-.81-3.37-.55-6.54.79-9.52,1.55-3.51,4.29-5.67,8.2-6.5,2.44-.52,4.61-.09,6.51,1.28l.29-.48c1.08-1.86,1.8-2.82,2.16-2.9.38-.08.73,0,1.08.22.34.23.55.52.63.88.06.3-.42,1.37-1.46,3.2-.05.09-.26.46-.65,1.1,1.46,1.88,2.46,4.2,2.98,6.94.66,3.34.35,6.37-.93,9.1-1.44,3.09-3.82,4.99-7.12,5.68-2.55.54-4.95.13-7.18-1.23-.25.4-.38.63-.42.7-.71,1.46-1.23,2.23-1.58,2.31Zm2.45-8.88c1.53-2.53,4.01-6.74,7.45-12.64-.98-.7-2.17-.92-3.55-.64-2.31.47-3.87,1.9-4.69,4.28-.68,1.91-.79,3.96-.33,6.13.23,1.11.61,2.07,1.12,2.87Zm9.25-10.36l-7.36,12.24c1.24.74,2.53.97,3.88.69,1.63-.34,2.91-1.21,3.85-2.6,1.06-1.55,1.41-3.41,1.04-5.55-.33-1.97-.8-3.56-1.4-4.78Z"/><path d="m191.82,252.66c-2.4.5-4.67.51-6.82.03-.35.83-.89,1.31-1.61,1.47-.6.12-1.14.03-1.64-.28-.5-.31-.81-.76-.94-1.36-.08-.39-.19-.97-.31-1.74-.12-.77-.22-1.36-.31-1.75-.34-1.59-.88-3.96-1.64-7.12-.75-3.16-1.3-5.53-1.63-7.12-.23-1.09-.66-3.17-1.29-6.23-.63-3.06-1.06-5.14-1.29-6.25-.19-.9-.16-1.75.08-2.55.32-1.02.94-1.63,1.85-1.82,1.17-.25,1.9.28,2.17,1.59.04.21.07.53.08.95,0,.42.03.74.08.95l.97,4.94,1.16,5.75c1.18-1.17,2.33-2.11,3.47-2.81,1.14-.7,2.25-1.17,3.33-1.39,3.37-.71,6.36-.05,8.99,1.98,2.46,1.91,4.05,4.56,4.77,7.95.72,3.42.18,6.57-1.62,9.44-1.8,2.87-4.42,4.67-7.85,5.39Zm-3.39-20.51c-1.29.27-2.53.89-3.73,1.87-.58.48-1.56,1.46-2.91,2.94l.77,3.9.76,3.51.8,3.68c.82.17,1.97.37,3.44.59,1.03.08,2.15,0,3.36-.26,2.27-.48,3.97-1.64,5.11-3.47,1.13-1.84,1.46-3.89.98-6.17-.47-2.23-1.45-3.98-2.94-5.23-1.61-1.35-3.49-1.8-5.64-1.35Z"/><path d="m220.39,246.73c-3.54.75-6.59.5-9.14-.73-2.79-1.37-4.54-3.74-5.26-7.12-.82-3.9-.52-7.38.89-10.43,1.54-3.33,4.1-5.38,7.69-6.13,2.6-.55,4.81-.58,6.63-.08,2.24.61,3.58,1.99,4.04,4.13.32,1.5-.28,3.05-1.79,4.66-.67.7-2.15,1.89-4.45,3.57l-8.12,5.96c1.14,1.06,2.43,1.77,3.87,2.12,1.44.35,3.03.35,4.77-.02,1.08-.23,2.31-.69,3.68-1.39,1.74-.88,2.8-1.79,3.16-2.7s.85-1.44,1.46-1.56c.55-.12,1.08-.02,1.59.29s.83.72.94,1.25c.35,1.67-.75,3.39-3.3,5.18-2.18,1.53-4.41,2.53-6.68,3.01Zm-4.96-20.36c-1.91.4-3.35,1.45-4.32,3.13-.97,1.69-1.47,4.02-1.49,7l6.52-4.81c2.56-1.92,4.34-3.49,5.34-4.72-1.6-.92-3.62-1.12-6.04-.61Z"/><path d="m253.93,240.25c-1.35.28-2.26-.26-2.73-1.63l-1.7-4.79c-.59-1.71-1.04-3.33-1.37-4.86-.09-.42-.21-1.14-.37-2.15-.16-1.02-.28-1.74-.37-2.16-.68-3.24-1.65-4.73-2.9-4.46-1.75.37-3.22,1.72-4.4,4.05-1.06,2.12-1.7,4.65-1.93,7.6.09.59.18,1.34.25,2.25.06.77.17,1.51.32,2.21.1.45.28,1.12.57,2,.28.88.47,1.54.57,1.99.14.67.04,1.27-.3,1.78-.34.51-.85.84-1.52.98-.69.15-1.29.05-1.8-.28-.51-.33-.84-.83-.98-1.51-.09-.45-.29-1.11-.58-1.99-.29-.88-.49-1.54-.58-1.99-.33-1.54-.66-3.71-1.01-6.5-.35-2.79-.69-4.95-1.01-6.5-.1-.48-.28-1.19-.53-2.12-.25-.93-.43-1.64-.53-2.12-.14-.65-.02-1.22.33-1.73.36-.51.87-.83,1.53-.97,1.44-.3,2.44.5,2.99,2.42l.63,2.62c1.92-3.91,4.27-6.16,7.04-6.75,2.51-.53,4.48.16,5.91,2.07.97,1.27,1.78,3.28,2.42,6.02l.48,2.27.42,2.1c.26,1.25.77,2.82,1.52,4.72.75,1.9,1.26,3.47,1.52,4.7.14.66.03,1.24-.33,1.75-.36.51-.88.83-1.55.97Z"/><path d="m280.72,234.39c-1.11.23-1.96-.18-2.54-1.25-.62-1.15-1.32-2.83-2.09-5.03-.74-2.12-1.26-3.87-1.55-5.27-.08-.39-.19-.99-.32-1.79-.13-.8-.23-1.4-.32-1.79-.59-2.82-1.63-4.08-3.1-3.77-1.99.42-3.59,1.66-4.79,3.71-.61,1.05-1.35,2.97-2.22,5.76,1.21,5.71,1.67,9.15,1.39,10.31-.24,1.02-.83,1.63-1.75,1.83-.64.14-1.25.04-1.83-.27-.58-.32-.92-.78-1.05-1.38-.04-.21-.04-.56,0-1.04.04-.4-.1-1.52-.43-3.34l-.63-3.34-3.42-16.55c-.28-1.88-.49-3.15-.63-3.79-.16-.77-.39-1.47-.68-2.12-.29-.65-.52-1.34-.67-2.08-.13-.63-.02-1.2.35-1.71.37-.51.88-.83,1.54-.97,1.28-.27,2.17.23,2.67,1.5.56,1.4.96,2.69,1.21,3.86.33,1.58.62,3.23.87,4.96.25,1.66.56,3.31.92,4.95l.44,1.97c.94-1.92,2.05-3.44,3.34-4.57,1.29-1.13,2.76-1.86,4.41-2.21,2.6-.55,4.56-.11,5.87,1.3.93,1,1.73,2.83,2.39,5.51l1.09,4.26,1.46,4.58c.59,1.71,1.18,3.2,1.78,4.47.12.24.19.45.23.63.13.62,0,1.18-.38,1.69-.38.51-.9.84-1.56.98Z"/><path d="m307.23,228.89c-.3.06-.91-.15-1.83-.65-.83-.47-1.48-.9-1.92-1.31-1.34,1.1-2.54,1.96-3.6,2.6-1.06.64-1.97,1.04-2.74,1.2-3.67.77-6.55.34-8.64-1.28-1.97-1.53-3.37-4.21-4.18-8.05-.77-3.63-.12-7.01,1.95-10.14,2.06-3.13,4.91-5.08,8.53-5.84,1.36-.29,2.96-.27,4.79.05,2.31.39,3.59,1.18,3.84,2.36.09.41,0,.8-.24,1.18-.04.6.04,1.57.23,2.89.19,1.32.49,3.01.91,5.05.38,1.86.82,3.3,1.33,4.33.29.63,1.07,1.84,2.32,3.65.17.25.43.61.79,1.08l.22.35c.13.6.01,1.14-.34,1.62-.36.48-.82.79-1.4.91Zm-8.19-14.61c-.14-.64-.24-1.35-.31-2.13-.07-.78-.11-1.61-.12-2.5-.64-.16-1.18-.27-1.62-.32-.44-.05-.79-.04-1.04,0-2.43.51-4.32,1.9-5.69,4.17-1.36,2.27-1.78,4.64-1.26,7.12.52,2.46,1.36,4.21,2.53,5.25,1.17,1.04,2.66,1.37,4.48.98,1.5-.32,2.73-.85,3.67-1.59.5-.4,1.17-1.14,2.01-2.21-1.34-3.87-2.22-6.79-2.63-8.77Z"/><path d="m323.78,222.63c.24,1.39-.32,2.23-1.7,2.52-1.14.24-2.11-.23-2.9-1.41l-5.52-8.38-6.36-9.45c-.24-.36-.39-.69-.45-.99-.13-.61,0-1.19.4-1.73s.91-.87,1.55-1.01c.94-.2,1.71.12,2.31.95l9.28,14.47c.67-2.65,1.42-6.44,2.24-11.38.17-1.29.48-3.12.92-5.51.28-1.06.87-1.69,1.77-1.88.64-.14,1.25-.04,1.83.3.58.33.93.8,1.06,1.4.12.57-.5,4.05-1.85,10.45l-2.58,11.64Z"/><path d="m354.96,218.95c-1.35.28-2.26-.26-2.73-1.63l-1.7-4.79c-.59-1.71-1.05-3.33-1.37-4.86-.09-.42-.21-1.14-.37-2.16-.16-1.02-.28-1.74-.37-2.16-.68-3.24-1.65-4.73-2.9-4.46-1.76.37-3.22,1.72-4.4,4.05-1.06,2.12-1.7,4.65-1.93,7.6.09.59.18,1.34.25,2.25.06.77.17,1.51.32,2.21.09.45.28,1.12.57,2,.28.88.47,1.54.57,1.99.14.67.04,1.27-.3,1.78-.34.51-.85.84-1.52.98-.69.14-1.29.05-1.8-.28-.51-.33-.84-.83-.98-1.51-.1-.45-.29-1.11-.58-1.99-.29-.88-.49-1.54-.58-1.99-.33-1.54-.66-3.71-1.01-6.5s-.69-4.95-1.01-6.5c-.1-.48-.28-1.19-.53-2.12-.25-.93-.43-1.64-.53-2.12-.14-.65-.02-1.22.34-1.73.36-.51.87-.83,1.53-.97,1.44-.3,2.44.5,2.99,2.42l.62,2.62c1.92-3.91,4.27-6.16,7.04-6.75,2.51-.53,4.48.16,5.91,2.07.97,1.27,1.78,3.28,2.42,6.02l.48,2.27.42,2.1c.26,1.25.77,2.82,1.52,4.72.75,1.9,1.26,3.47,1.52,4.7.14.66.03,1.24-.33,1.75-.36.51-.88.83-1.55.97Z"/></g></g><g><path d="m175.8,282.46c-1.38.91-3.24,1.61-5.58,2.1-.29.06-.59-.02-.9-.23-.32-.22-.5-.47-.56-.76l-.62-2.92c-.2-.96-.43-2.33-.68-4.13-.27-1.94-.49-3.34-.65-4.2-.14-.61-.29-1.54-.47-2.77-.02-.34.04-.59.19-.73.85-.47,1.85-.83,3.01-1.08,1.18-.25,2.39-.08,3.65.49,1.45.66,2.31,1.67,2.6,3.03.36,1.72-.02,3.21-1.15,4.49,1.09.22,1.94.53,2.55.95.61.42.98.93,1.11,1.55.17.81-.1,1.68-.82,2.62-.5.66-1.05,1.2-1.67,1.6Zm-5.84-12.68c-.73.15-1.24.29-1.52.39l.35,1.76.62,3.92c.97-.12,1.48-.19,1.55-.21.99-.29,1.75-.78,2.28-1.46.56-.74.75-1.58.55-2.52-.13-.64-.61-1.15-1.43-1.54-.82-.39-1.62-.51-2.4-.34Zm2.82,7.8l-1.1.05c-.09.02-.22.05-.39.1-.18.05-.31.08-.4.1-.36.08-.75.13-1.17.15.14.85.28,1.61.42,2.27l.44,2.08c1.74-.43,3.12-.98,4.13-1.65.43-.28.82-.65,1.17-1.13.33-.43.48-.74.45-.91-.07-.31-.57-.58-1.51-.79-.71-.17-1.38-.26-2.02-.28Z"/><path d="m187.58,272.65c.13.85-.12,1.34-.74,1.47-.58.12-.93-.15-1.07-.81-.03-.13-.09-.36-.18-.7l-.21-.84c-1.03.35-1.81.83-2.35,1.43-.5.56-.86,1.32-1.07,2.28l1.18,5.49c.14.67-.12,1.08-.78,1.22-.59.12-.95-.15-1.1-.83l-1.48-7.04c-.05-.22-.11-.55-.18-1-.08-.45-.14-.78-.18-1-.14-.68.08-1.08.67-1.2.66-.14,1.1.35,1.35,1.46,1.02-1.51,2.32-2.43,3.88-2.76.54-.11.99,0,1.34.36s.62.94.79,1.76c.07.35.12.58.14.7Z"/><path d="m197.79,277.67c-.22.33-.56.65-.99.95-.46.32-.9.52-1.3.61-1.45.31-2.74.07-3.87-.72-1.1-.77-1.8-1.88-2.11-3.35-.33-1.57-.02-3.05.94-4.44.93-1.36,2.2-2.21,3.78-2.55.69-.15,1.53-.15,2.53-.02.23.03.44.38.63,1.05.26-.63.69-1.17,1.29-1.63.57-.43,1.18-.72,1.85-.86,1.07-.23,1.99-.24,2.77-.03,1,.28,1.6.9,1.81,1.87.14.68-.12,1.38-.78,2.1-.27.29-.89.8-1.86,1.53l-3.45,2.62c.98.96,2.22,1.28,3.7.97.54-.11,1.09-.32,1.64-.63.66-.36,1.08-.75,1.27-1.17.19-.41.4-.64.62-.69.23-.05.46,0,.68.13.22.14.36.33.41.56.16.78-.33,1.56-1.47,2.35-.93.64-1.86,1.06-2.76,1.25-1.55.33-2.77.19-3.64-.42.06.13.14.35.24.66.08.27-.14.46-.69.57-.35.08-.62.04-.81-.1-.11-.08-.25-.29-.44-.64Zm-1.8-7.73l-.78-.2c-.14-.02-.4.01-.79.09-1.06.22-1.87.86-2.45,1.92-.54,1-.7,2.04-.47,3.12.18.84.63,1.54,1.35,2.11.76.59,1.55.79,2.38.62.45-.09.84-.27,1.18-.52.34-.25.63-.58.87-.99-.32-.81-.52-1.36-.58-1.64-.4-1.88-.64-3.38-.72-4.51Zm4.93-1.43c-1.64.34-2.46,1.84-2.45,4.49l2.65-1.95c1.04-.79,1.84-1.54,2.39-2.24-.69-.41-1.55-.51-2.59-.29Z"/><path d="m214.85,265.71c-.14.03-.31.06-.5.08-.19.03-.36.05-.5.08-.15.03-.6.18-1.33.44l1.44,5.89.1.44.12.51c.34,1.46.14,2.27-.59,2.42-.27.06-.52.02-.75-.11-.23-.13-.38-.33-.43-.59-.05-.25-.12-.64-.21-1.15s-.16-.9-.21-1.15l-1.44-5.82c-.49.08-1.25.18-2.26.3-.61.05-.98-.22-1.1-.8-.06-.29-.02-.56.12-.79s.35-.38.63-.44l2.14-.27c-.07-.34-.18-.79-.33-1.36-.15-.57-.25-.98-.31-1.23-.06-.28-.01-.53.14-.76.16-.22.37-.37.66-.43.6-.13,1.06.29,1.36,1.25.07.24.15.54.22.89l.1.58.12.63c.81-.28,1.27-.44,1.39-.46.7-.15,1.16-.21,1.39-.19.44.05.71.32.81.81.06.29.02.56-.12.79-.14.23-.36.37-.65.43Z"/><path d="m226.58,259.21c-.14-.67-.01-1.43.39-2.28.43-.91.97-1.43,1.62-1.57.76-.16,1.42-.02,1.96.42.51.4.85,1,1.01,1.78.29,1.36-.25,2.81-1.61,4.36.75,1.02,1.85,2.28,3.28,3.76.06-.4.08-.8.06-1.21-.04-.7-.05-1.15-.04-1.32.06-.59.27-.92.63-.99.28-.06.53.04.76.31.19.22.31.48.38.79.29,1.36.2,2.69-.25,3.99,1.49,1.52,2.26,2.44,2.33,2.77.05.24,0,.47-.16.68-.16.21-.35.34-.59.39-.3.06-.59-.05-.88-.35l-1.58-1.75c-1.07,1.59-2.43,2.57-4.1,2.92-1.25.26-2.4.1-3.44-.48-1.1-.61-1.78-1.52-2.04-2.76-.27-1.3-.03-2.58.73-3.85.44-.73,1.31-1.76,2.6-3.08-.53-.83-.89-1.67-1.07-2.53Zm2.17,4c-.99,1.01-1.65,1.77-1.97,2.27-.64.98-.86,1.92-.67,2.81.15.73.57,1.26,1.25,1.6.63.31,1.32.38,2.07.22,1.35-.29,2.4-1.1,3.14-2.45-.67-.65-1.94-2.14-3.81-4.46Zm.18-2.9c.71-.89.99-1.68.84-2.38-.06-.31-.17-.53-.3-.65-.14-.13-.31-.17-.51-.13-.12.03-.26.28-.41.75-.15.48-.22.78-.19.93.09.45.29.94.57,1.48Z"/><path d="m255.28,266.24c-.25.05-.51,0-.78-.17-2.68-1.72-5.45-2.67-8.32-2.86l.5,1.95.47,1.96c.06.29.02.56-.13.8-.15.24-.37.39-.66.45-.29.06-.55.01-.78-.14-.23-.16-.38-.38-.44-.68-.11-.53-.3-1.31-.57-2.35-.27-1.04-.46-1.82-.57-2.35-.13-.62-.26-1.54-.38-2.79-.12-1.25-.25-2.17-.38-2.78-.07-.34-.21-.84-.41-1.49-.21-.66-.34-1.15-.42-1.5-.08-.38-.04-.74.11-1.07.18-.41.5-.64.95-.7l2.46-.32c.94-.08,1.76-.02,2.46.18,3.01.87,4.74,2.34,5.17,4.41.21,1.02-.06,2.01-.82,2.99-.61.79-1.44,1.46-2.48,2.02,2.32.68,4.12,1.53,5.41,2.55.22.18.35.39.4.63.06.28,0,.55-.15.8-.16.25-.38.4-.65.46Zm-9.19-11.92l-1.51.19.36,1.19c.15.49.26.89.33,1.2.11.54.21,1.21.29,2.02l.21,2.04c.09-.02.24-.05.44-.08.2-.03.35-.06.45-.08,1.71-.36,2.94-.86,3.69-1.49.33-.29.62-.63.87-1.03.28-.45.38-.8.33-1.06-.2-.93-.91-1.69-2.13-2.27-1.12-.53-2.23-.74-3.32-.63Z"/><path d="m262.15,265.29c-1.12.24-2.18.02-3.16-.63-1.1-.73-1.83-1.88-2.21-3.42-.36-1.5-.26-2.91.3-4.23.65-1.55,1.81-2.51,3.48-2.86,1.34-.28,2.48.12,3.43,1.19.76.87,1.27,2.01,1.55,3.4.29,1.49.17,2.84-.36,4.05-.61,1.37-1.61,2.21-3.03,2.5Zm-1.29-9.09c-.98.2-1.65.83-2,1.89-.28.85-.31,1.75-.11,2.72.21.97.63,1.67,1.27,2.1.54.36,1.1.47,1.7.34.7-.15,1.24-.53,1.64-1.14.45-.68.59-1.5.42-2.47-.45-2.61-1.42-3.76-2.92-3.45Z"/><path d="m269.96,254.79l.9,5.02c.11.53.25,1.31.41,2.34.07.68-.18,1.09-.77,1.21-.66.14-1.06-.13-1.2-.82-.17-.81-.39-2.03-.66-3.67s-.49-2.86-.66-3.67c-.22-1.06-.46-2.27-.71-3.64-.25-1.37-.49-2.58-.71-3.64-.14-.67.12-1.07.77-1.21.66-.14,1.06.12,1.21.79.22,1.06.46,2.27.71,3.64.25,1.37.49,2.58.71,3.64Z"/><path d="m275.58,253.6l.9,5.02c.11.53.25,1.31.41,2.34.07.68-.18,1.09-.77,1.21-.66.14-1.06-.13-1.2-.82-.17-.81-.39-2.03-.66-3.67-.27-1.64-.49-2.86-.66-3.67-.22-1.06-.46-2.27-.71-3.64-.25-1.37-.49-2.58-.71-3.64-.14-.67.12-1.07.77-1.21.66-.14,1.06.12,1.21.79.22,1.06.46,2.27.71,3.64.25,1.37.49,2.58.71,3.64Z"/><path d="m285.11,260.32c-1.51.32-2.82.2-3.91-.36-1.2-.62-1.96-1.68-2.27-3.19-.37-1.74-.25-3.29.34-4.64.65-1.48,1.73-2.38,3.27-2.7,1.11-.23,2.06-.24,2.84-.01.96.28,1.54.9,1.74,1.85.14.67-.11,1.36-.75,2.06-.28.31-.91.84-1.89,1.57l-3.45,2.62c.49.48,1.05.8,1.66.96.62.16,1.3.17,2.04,0,.46-.1.99-.3,1.57-.6.74-.39,1.19-.78,1.34-1.19.15-.41.36-.64.62-.69.23-.05.46,0,.68.13.22.14.36.33.41.56.16.74-.31,1.51-1.39,2.29-.93.67-1.88,1.11-2.85,1.31Zm-2.2-9.08c-.82.17-1.43.63-1.84,1.38-.41.75-.61,1.78-.61,3.11l2.77-2.11c1.09-.84,1.84-1.54,2.27-2.08-.69-.41-1.55-.51-2.59-.29Z"/><path d="m296.73,249.31c-.37.08-.65,0-.85-.21-.14-.15-.3-.5-.49-1.03-.47.23-1.2.63-2.17,1.19-.99.65-1.42,1.3-1.29,1.93.22.03.42.04.63.04,1.6-.05,2.82.09,3.67.41,1.24.47,2,1.37,2.28,2.71.23,1.09-.07,2.01-.89,2.77-.69.62-1.63,1.06-2.83,1.31-.88.18-1.74.21-2.6.09-1.11-.16-1.73-.57-1.88-1.24-.06-.27,0-.52.17-.77.17-.24.39-.4.65-.45.21-.04.51.06.9.31.19.12.58.17,1.16.15.46-.01.85-.05,1.16-.12.56-.12,1.04-.29,1.44-.51.58-.33.83-.7.74-1.12-.19-.91-.96-1.39-2.29-1.44h-1.09c-.93-.02-1.61-.11-2.04-.29-.62-.26-1.01-.77-1.17-1.52-.29-1.4.15-2.53,1.35-3.41.36-.26.96-.62,1.79-1.05.83-.44,1.42-.78,1.76-1.04.25-.18.53-.3.85-.37.29-.06.54-.02.77.13.22.15.37.37.43.67.04.19.14.47.31.83.16.36.26.63.3.83.06.3.02.56-.12.79-.14.23-.36.37-.65.43Z"/><path d="m305.93,255.81c-.67.14-1.43.19-2.27.14l.99,4.8c.06.29.02.55-.12.78-.14.23-.36.37-.65.43-.29.06-.54.02-.77-.13s-.37-.37-.43-.66l-.82-4.02-.84-4c-.33-1.46-.66-2.78-.99-3.97l-.58-2.01c-.1-.48-.1-.9,0-1.26.12-.44.37-.7.75-.78.26-.05.5,0,.72.14.22.15.35.35.41.62.01.06.03.17.04.34.01.22.03.41.05.59.49-.52.98-.93,1.48-1.24.49-.31.98-.52,1.47-.62,1.37-.29,2.5.11,3.4,1.19.71.86,1.22,2.08,1.56,3.67.3,1.44.17,2.72-.41,3.82-.61,1.16-1.61,1.89-2.98,2.18Zm-1.14-8.84c-.62.13-1.14.38-1.58.76-.31.27-.69.72-1.12,1.35.41,1.5.79,3.08,1.14,4.76.79.13,1.55.11,2.28-.04.84-.18,1.41-.62,1.72-1.34.27-.62.31-1.37.13-2.23-.26-1.22-.6-2.1-1.02-2.64-.43-.54-.94-.75-1.54-.62Z"/><path d="m311.81,240.94c-.32.07-.62.01-.91-.17-.28-.18-.46-.43-.52-.75s0-.62.18-.9.44-.45.76-.52c.32-.07.62-.01.9.17.28.18.45.43.52.75.07.32,0,.62-.17.9-.18.28-.43.45-.75.52Zm2.17,8.05c.08.4.22,1,.41,1.79.19.79.33,1.39.42,1.79.06.3.02.55-.12.78-.14.23-.36.37-.65.43-.29.06-.54.02-.77-.13-.22-.15-.37-.37-.43-.67-.08-.4-.22-1-.41-1.79-.19-.79-.33-1.39-.42-1.79-.13-.63-.26-1.42-.4-2.37-.13-.95-.26-1.75-.4-2.38-.06-.3-.02-.56.12-.79.14-.23.36-.37.65-.43.29-.06.54-.02.77.13.22.15.37.37.43.67.13.63.26,1.42.39,2.37.13.95.26,1.75.4,2.37Z"/><path d="m319.22,244.41l.9,5.02c.11.53.25,1.31.41,2.35.07.68-.18,1.09-.77,1.21-.66.14-1.06-.13-1.2-.82-.17-.81-.39-2.03-.66-3.67s-.49-2.86-.66-3.67c-.22-1.06-.46-2.27-.71-3.64-.25-1.37-.49-2.58-.71-3.64-.14-.67.12-1.07.77-1.21.66-.14,1.06.12,1.21.79.22,1.06.46,2.27.71,3.64.25,1.37.49,2.58.71,3.64Z"/></g></svg>