<?xml version="1.0" encoding="UTF-8"?><svg id="Layer_2" xmlns="http://www.w3.org/2000/svg" viewBox="0 0 450 450"><defs><style>.cls-1{fill:#fff;}.cls-2{fill:#7a95c2;stroke:#000;stroke-miterlimit:10;stroke-width:3px;}</style></defs><path class="cls-2" d="m27.25,132.7l91,34-13-84,65,45,26-99,37,91,48-51,9,60,113-57-66,99,91,25-74,55,34,87-71-30v92l-68-78-56,81-16-75-105,94,53-142-109-24,37.15-10.05c15.95-4.32,31.9-8.63,47.85-12.95-24.67-33.33-49.33-66.67-74-100Z"/><polygon class="cls-1" points="194.98 58 172.93 148.48 115.15 103.24 125.95 176.39 50.22 150.4 114.45 238.96 47 253.5 134.58 273.61 88.57 392 180.6 311.15 194.98 371.56 245.78 304.41 303.3 377.56 303.3 291.38 363.7 320.77 334.94 244.73 403 198.53 316.72 178.32 367.53 98.43 271.67 150.4 270.85 88.31 236.2 130.19 225 143.51 194.98 58"/><g><path d="m150,261.51c-2.38.5-6.2-.79-11.44-3.86l-8.45-5.29.07.32,2.46,11.79c.31,1.48-.21,2.37-1.57,2.66-.89.19-1.69-.04-2.38-.67-.57-.52-.93-1.14-1.08-1.86-.74-3.51-1.74-8.78-2.99-15.82-1.25-7.04-2.25-12.3-2.99-15.8-.14-.64-.03-1.24.32-1.78s.86-.89,1.51-1.03c.67-.14,1.28-.03,1.82.32.54.36.88.86,1.02,1.5.31,1.46.69,3.74,1.15,6.85.44,3.01.83,5.3,1.18,6.87,1.7-2.35,3.57-5.24,5.61-8.68l5.17-8.91c.41-.7.94-1.12,1.6-1.25.63-.13,1.23-.02,1.81.32.58.35.94.84,1.07,1.49.21.99-1.26,4.06-4.39,9.2-2.17,3.51-4.45,6.99-6.84,10.42,2.28,1.49,5.8,3.59,10.55,6.28l2.89,1.46c1.03.47,2.1.76,3.2.88,1.32.13,2.1.74,2.33,1.84.11.51.05,1.03-.19,1.57-.29.66-.77,1.05-1.44,1.2Z"/><path d="m155.29,260.65c-.41.09-.82.04-1.23-.14-.41-.18-.65-.44-.71-.79-.11-.77.35-1.86,1.38-3.25.12-.15.25-.33.4-.55-1.5-1.58-2.54-3.59-3.14-6.04-.81-3.37-.55-6.54.79-9.52,1.55-3.51,4.29-5.67,8.2-6.5,2.44-.52,4.61-.09,6.51,1.28l.29-.48c1.08-1.86,1.8-2.82,2.16-2.9.38-.08.74,0,1.08.22.34.23.55.52.63.88.06.3-.42,1.37-1.46,3.2-.05.09-.26.46-.65,1.1,1.46,1.89,2.46,4.2,2.98,6.94.66,3.34.35,6.37-.93,9.1-1.44,3.09-3.82,4.99-7.12,5.68-2.55.54-4.95.13-7.18-1.23-.24.4-.38.63-.42.7-.71,1.46-1.23,2.23-1.58,2.31Zm2.45-8.88c1.53-2.53,4.01-6.74,7.45-12.64-.98-.7-2.17-.92-3.55-.64-2.31.47-3.87,1.9-4.69,4.28-.68,1.91-.79,3.96-.33,6.13.23,1.11.61,2.07,1.12,2.87Zm9.25-10.36l-7.36,12.24c1.24.74,2.53.97,3.88.69,1.63-.34,2.91-1.21,3.85-2.6,1.06-1.55,1.41-3.41,1.04-5.55-.33-1.97-.8-3.56-1.4-4.78Z"/><path d="m191.86,252.71c-2.4.5-4.67.51-6.82.03-.35.83-.89,1.31-1.61,1.47-.6.13-1.14.03-1.64-.28-.5-.31-.81-.76-.94-1.36-.08-.39-.18-.97-.31-1.74-.12-.77-.22-1.36-.31-1.75-.33-1.59-.88-3.96-1.64-7.12-.75-3.15-1.3-5.53-1.63-7.12-.23-1.09-.66-3.17-1.29-6.23-.63-3.06-1.06-5.14-1.29-6.25-.19-.9-.16-1.75.08-2.55.32-1.03.94-1.63,1.85-1.82,1.17-.25,1.9.28,2.17,1.59.04.21.07.53.08.95,0,.42.03.74.08.95l.97,4.94,1.16,5.75c1.18-1.17,2.33-2.11,3.47-2.81,1.14-.7,2.25-1.17,3.33-1.39,3.37-.71,6.36-.05,8.98,1.98,2.46,1.91,4.05,4.56,4.77,7.95.72,3.42.18,6.56-1.62,9.43-1.8,2.87-4.42,4.67-7.85,5.39Zm-3.39-20.51c-1.28.27-2.53.89-3.73,1.87-.59.48-1.56,1.46-2.91,2.94l.77,3.9.76,3.51.8,3.68c.82.17,1.97.37,3.44.59,1.03.08,2.15,0,3.36-.26,2.27-.48,3.98-1.64,5.11-3.47,1.13-1.84,1.46-3.89.98-6.17-.47-2.23-1.45-3.98-2.94-5.23-1.61-1.35-3.49-1.8-5.64-1.35Z"/><path d="m220.43,246.78c-3.54.75-6.59.5-9.14-.73-2.79-1.37-4.54-3.74-5.26-7.12-.82-3.9-.52-7.38.89-10.43,1.54-3.33,4.1-5.38,7.69-6.13,2.6-.55,4.81-.58,6.63-.08,2.24.61,3.58,1.99,4.04,4.13.32,1.5-.28,3.05-1.79,4.65-.67.71-2.15,1.9-4.45,3.57l-8.12,5.96c1.14,1.06,2.43,1.77,3.87,2.12,1.44.36,3.03.35,4.77-.02,1.08-.23,2.31-.69,3.68-1.39,1.74-.88,2.8-1.79,3.16-2.7.36-.91.85-1.43,1.46-1.56.55-.12,1.08-.02,1.59.29.51.31.83.72.94,1.25.35,1.67-.75,3.39-3.3,5.18-2.18,1.53-4.41,2.53-6.68,3.01Zm-4.96-20.36c-1.91.4-3.35,1.45-4.32,3.13-.97,1.68-1.47,4.02-1.49,7l6.52-4.81c2.56-1.92,4.34-3.49,5.34-4.72-1.6-.92-3.62-1.12-6.04-.61Z"/><path d="m253.97,240.3c-1.35.28-2.26-.26-2.73-1.63l-1.7-4.79c-.59-1.71-1.05-3.33-1.37-4.86-.09-.42-.21-1.14-.37-2.15-.16-1.02-.28-1.74-.37-2.16-.68-3.24-1.65-4.73-2.9-4.46-1.75.37-3.22,1.72-4.4,4.05-1.06,2.12-1.7,4.65-1.93,7.6.09.59.18,1.34.25,2.25.07.77.17,1.51.32,2.21.1.45.28,1.12.57,2,.28.88.47,1.54.57,1.99.14.67.04,1.27-.3,1.78-.34.51-.85.84-1.52.98-.69.15-1.29.05-1.8-.28-.51-.33-.84-.83-.98-1.51-.1-.45-.29-1.11-.58-1.99s-.48-1.54-.58-1.99c-.33-1.54-.66-3.71-1.01-6.5-.35-2.79-.69-4.95-1.01-6.5-.1-.48-.28-1.19-.53-2.12-.25-.93-.43-1.64-.53-2.12-.14-.64-.02-1.22.33-1.73.36-.51.87-.83,1.53-.97,1.44-.3,2.44.5,2.99,2.42l.63,2.62c1.92-3.91,4.27-6.17,7.04-6.75,2.51-.53,4.48.16,5.91,2.07.97,1.27,1.78,3.28,2.42,6.02l.48,2.27.42,2.1c.26,1.25.77,2.82,1.52,4.72.75,1.9,1.26,3.47,1.52,4.7.14.66.03,1.24-.33,1.75-.36.51-.88.83-1.55.97Z"/><path d="m280.76,234.44c-1.11.23-1.96-.18-2.55-1.25-.62-1.15-1.32-2.83-2.09-5.03-.74-2.12-1.26-3.87-1.55-5.27-.08-.39-.19-.99-.32-1.79-.13-.8-.23-1.4-.32-1.79-.59-2.82-1.63-4.08-3.1-3.76-1.99.42-3.59,1.66-4.79,3.71-.61,1.05-1.35,2.97-2.22,5.76,1.2,5.71,1.67,9.15,1.39,10.31-.24,1.02-.83,1.63-1.75,1.83-.64.14-1.25.04-1.83-.27-.57-.32-.92-.78-1.05-1.38-.04-.21-.04-.56,0-1.04.05-.4-.1-1.52-.43-3.34l-.63-3.34-3.42-16.55c-.28-1.88-.49-3.15-.63-3.79-.16-.77-.39-1.47-.68-2.12-.29-.65-.52-1.34-.67-2.08-.13-.63-.02-1.2.35-1.71.37-.51.88-.83,1.54-.97,1.28-.27,2.18.23,2.67,1.5.56,1.4.96,2.69,1.21,3.86.33,1.58.62,3.23.87,4.96.25,1.65.56,3.31.92,4.95l.44,1.98c.94-1.92,2.05-3.44,3.34-4.57,1.29-1.12,2.76-1.86,4.41-2.21,2.6-.55,4.56-.12,5.87,1.3.93.99,1.73,2.83,2.39,5.51l1.09,4.26,1.46,4.58c.59,1.71,1.18,3.2,1.78,4.47.12.24.19.45.23.63.13.62,0,1.18-.38,1.69-.38.51-.9.84-1.56.98Z"/><path d="m307.27,228.95c-.3.06-.91-.15-1.83-.65-.83-.47-1.48-.9-1.92-1.31-1.34,1.1-2.54,1.96-3.6,2.6-1.06.64-1.97,1.04-2.74,1.2-3.67.77-6.55.34-8.64-1.28-1.98-1.53-3.37-4.21-4.18-8.05-.77-3.63-.12-7.01,1.95-10.14,2.06-3.13,4.91-5.08,8.53-5.84,1.36-.29,2.96-.27,4.8.05,2.31.39,3.59,1.18,3.84,2.36.09.41,0,.8-.24,1.18-.04.6.04,1.57.23,2.89.19,1.32.49,3.01.9,5.05.38,1.86.82,3.3,1.33,4.33.3.63,1.07,1.84,2.32,3.65.17.25.43.61.79,1.08l.22.35c.13.6.01,1.14-.34,1.62-.36.48-.82.79-1.4.91Zm-8.18-14.61c-.14-.64-.24-1.35-.31-2.13-.07-.78-.11-1.61-.12-2.5-.64-.16-1.18-.27-1.62-.32-.44-.05-.79-.04-1.04,0-2.43.51-4.32,1.9-5.69,4.17-1.36,2.27-1.78,4.64-1.26,7.12.52,2.46,1.36,4.21,2.53,5.25,1.17,1.04,2.66,1.37,4.48.98,1.5-.32,2.73-.85,3.67-1.59.5-.4,1.17-1.14,2.01-2.21-1.34-3.87-2.22-6.79-2.63-8.77Z"/><path d="m323.82,222.68c.24,1.39-.32,2.23-1.7,2.52-1.14.24-2.11-.23-2.9-1.41l-5.52-8.38-6.36-9.45c-.24-.36-.39-.68-.45-.98-.13-.61,0-1.19.4-1.73.39-.54.91-.87,1.55-1.01.94-.2,1.71.12,2.31.95l9.29,14.47c.67-2.65,1.42-6.44,2.24-11.38.17-1.29.48-3.12.93-5.51.28-1.06.87-1.69,1.76-1.88.64-.14,1.25-.04,1.83.3.58.33.93.8,1.06,1.4.12.57-.5,4.05-1.85,10.45l-2.58,11.63Z"/><path d="m355,219c-1.35.28-2.26-.26-2.72-1.63l-1.7-4.79c-.59-1.71-1.05-3.33-1.37-4.86-.09-.42-.21-1.14-.37-2.16s-.28-1.74-.37-2.16c-.68-3.24-1.65-4.73-2.9-4.46-1.75.37-3.22,1.72-4.4,4.05-1.06,2.12-1.7,4.65-1.93,7.6.09.59.18,1.34.25,2.25.06.77.17,1.51.32,2.21.09.45.28,1.12.57,2,.28.88.47,1.54.57,1.99.14.67.04,1.27-.3,1.78-.34.51-.85.84-1.52.98-.69.15-1.29.05-1.8-.28-.51-.33-.84-.83-.98-1.51-.1-.45-.29-1.12-.58-1.99-.29-.88-.48-1.54-.58-1.99-.33-1.54-.66-3.71-1.01-6.5-.35-2.79-.69-4.95-1.01-6.5-.1-.48-.28-1.19-.53-2.12-.25-.93-.43-1.64-.53-2.12-.14-.64-.02-1.22.34-1.73.36-.51.87-.83,1.53-.97,1.44-.3,2.44.5,2.99,2.42l.63,2.62c1.92-3.91,4.27-6.16,7.04-6.75,2.51-.53,4.48.16,5.91,2.07.97,1.27,1.78,3.28,2.42,6.02l.48,2.27.42,2.1c.26,1.25.77,2.82,1.52,4.72.75,1.9,1.26,3.47,1.52,4.7.14.66.03,1.24-.33,1.75-.36.51-.88.83-1.55.97Z"/></g></svg>