<?xml version="1.0" encoding="UTF-8"?><svg id="Layer_2" xmlns="http://www.w3.org/2000/svg" viewBox="0 0 450 450"><defs><style>.cls-1{fill:#fff;}.cls-2{fill:#7a95c2;stroke:#000;stroke-miterlimit:10;stroke-width:3px;}</style></defs><g><path class="cls-2" d="m27.25,132.7l91,34-13-84,65,45,26-99,37,91,48-51,9,60,113-57-66,99,91,25-74,55,34,87-71-30v92l-68-78-56,81-16-75-105,94,53-142-109-24,37.15-10.05c15.95-4.32,31.9-8.63,47.85-12.95-24.67-33.33-49.33-66.67-74-100Z"/><polygon class="cls-1" points="198.32 62 177.27 150.04 122.09 106.02 132.4 177.2 60.08 151.91 121.42 238.08 57 252.23 140.64 271.8 96.7 387 184.59 308.33 198.32 367.11 246.85 301.77 301.78 372.95 301.78 289.09 359.46 317.69 332 243.7 397 198.74 314.6 179.07 363.12 101.34 271.57 151.91 270.79 91.49 237.69 132.24 227 145.2 198.32 62"/><g><path d="m149.96,261.46c-2.38.5-6.2-.79-11.44-3.86l-8.46-5.29.07.32,2.46,11.79c.31,1.48-.21,2.37-1.57,2.66-.89.19-1.69-.04-2.38-.67-.57-.52-.93-1.14-1.08-1.86-.74-3.51-1.74-8.78-2.99-15.82-1.25-7.04-2.25-12.3-2.99-15.8-.14-.64-.03-1.24.32-1.78.35-.54.86-.89,1.51-1.02.67-.14,1.28-.03,1.82.32.54.36.88.86,1.02,1.5.31,1.46.69,3.74,1.15,6.85.44,3.01.83,5.3,1.18,6.87,1.7-2.35,3.57-5.24,5.61-8.68l5.17-8.92c.41-.7.94-1.11,1.6-1.25.63-.13,1.23-.02,1.81.32s.94.84,1.08,1.49c.21.99-1.26,4.06-4.39,9.2-2.17,3.51-4.45,6.99-6.84,10.42,2.28,1.49,5.8,3.59,10.55,6.28l2.88,1.46c1.03.47,2.1.76,3.2.88,1.32.13,2.1.74,2.33,1.84.11.51.04,1.03-.19,1.57-.29.66-.77,1.05-1.44,1.2Z"/><path d="m155.25,260.6c-.41.09-.82.04-1.23-.14-.41-.18-.65-.44-.71-.79-.11-.77.34-1.86,1.38-3.25.12-.15.25-.33.4-.55-1.5-1.58-2.54-3.59-3.14-6.04-.81-3.37-.55-6.54.79-9.52,1.55-3.51,4.29-5.67,8.2-6.5,2.44-.52,4.61-.09,6.51,1.28l.29-.48c1.08-1.86,1.8-2.82,2.16-2.9.38-.08.74,0,1.08.22.34.23.55.52.63.88.06.3-.42,1.37-1.46,3.2-.05.09-.26.46-.65,1.1,1.46,1.88,2.46,4.2,2.98,6.94.66,3.34.35,6.37-.93,9.1-1.44,3.09-3.82,4.99-7.12,5.68-2.55.54-4.95.13-7.18-1.23-.24.4-.38.63-.42.7-.71,1.46-1.23,2.23-1.58,2.31Zm2.45-8.88c1.53-2.53,4.01-6.74,7.45-12.64-.98-.7-2.17-.92-3.55-.64-2.31.47-3.87,1.9-4.69,4.28-.68,1.91-.79,3.96-.33,6.13.23,1.11.61,2.07,1.12,2.87Zm9.25-10.36l-7.36,12.24c1.24.74,2.53.97,3.88.69,1.63-.34,2.91-1.21,3.85-2.6,1.06-1.55,1.41-3.41,1.04-5.55-.33-1.97-.8-3.56-1.4-4.78Z"/><path d="m191.82,252.66c-2.4.5-4.67.51-6.82.03-.35.83-.89,1.31-1.61,1.47-.6.12-1.14.03-1.64-.28-.5-.31-.81-.76-.94-1.36-.08-.39-.18-.97-.31-1.74-.12-.77-.22-1.36-.31-1.75-.34-1.59-.88-3.96-1.64-7.12-.75-3.16-1.3-5.53-1.63-7.12-.23-1.09-.66-3.17-1.29-6.23-.63-3.06-1.06-5.14-1.29-6.25-.19-.9-.16-1.75.08-2.55.32-1.02.94-1.63,1.85-1.82,1.17-.25,1.9.28,2.17,1.59.04.21.07.53.08.95,0,.42.03.74.08.95l.97,4.94,1.16,5.75c1.18-1.17,2.33-2.11,3.47-2.81,1.14-.7,2.25-1.17,3.33-1.39,3.37-.71,6.36-.05,8.98,1.98,2.46,1.91,4.05,4.56,4.77,7.95.72,3.42.18,6.57-1.62,9.44-1.8,2.87-4.42,4.67-7.85,5.39Zm-3.39-20.51c-1.29.27-2.53.89-3.73,1.87-.58.48-1.56,1.46-2.91,2.94l.77,3.9.76,3.51.8,3.68c.82.17,1.97.37,3.44.59,1.03.08,2.15,0,3.36-.26,2.27-.48,3.97-1.64,5.11-3.47,1.13-1.84,1.46-3.89.98-6.17-.47-2.23-1.45-3.98-2.94-5.23-1.61-1.35-3.49-1.8-5.64-1.35Z"/><path d="m220.39,246.73c-3.54.75-6.59.5-9.14-.73-2.79-1.37-4.54-3.74-5.26-7.12-.82-3.9-.52-7.38.89-10.43,1.54-3.33,4.1-5.38,7.69-6.13,2.6-.55,4.81-.58,6.63-.08,2.24.61,3.58,1.99,4.04,4.13.32,1.5-.28,3.05-1.79,4.66-.67.7-2.15,1.89-4.45,3.57l-8.12,5.96c1.14,1.06,2.43,1.77,3.87,2.12,1.44.35,3.03.35,4.77-.02,1.08-.23,2.31-.69,3.68-1.39,1.74-.88,2.8-1.79,3.16-2.7.36-.91.85-1.44,1.46-1.56.55-.12,1.08-.02,1.59.29.51.31.83.72.94,1.25.35,1.67-.75,3.39-3.3,5.18-2.18,1.53-4.41,2.53-6.68,3.01Zm-4.96-20.36c-1.91.4-3.35,1.45-4.32,3.13-.97,1.69-1.47,4.02-1.49,7l6.52-4.81c2.56-1.92,4.34-3.49,5.34-4.72-1.6-.92-3.62-1.12-6.04-.61Z"/><path d="m253.93,240.25c-1.35.28-2.26-.26-2.73-1.63l-1.7-4.79c-.59-1.71-1.05-3.33-1.37-4.86-.09-.42-.21-1.14-.37-2.15-.16-1.02-.28-1.74-.37-2.16-.68-3.24-1.65-4.73-2.9-4.46-1.75.37-3.22,1.72-4.4,4.05-1.06,2.12-1.7,4.65-1.93,7.6.09.59.18,1.34.25,2.25.06.77.17,1.51.32,2.21.1.45.28,1.12.57,2,.28.88.47,1.54.57,1.99.14.67.04,1.27-.3,1.78-.34.51-.85.84-1.52.98-.69.15-1.29.05-1.8-.28-.51-.33-.84-.83-.98-1.51-.1-.45-.29-1.11-.58-1.99-.29-.88-.48-1.54-.58-1.99-.33-1.54-.66-3.71-1.01-6.5-.35-2.79-.69-4.95-1.01-6.5-.1-.48-.28-1.19-.53-2.12-.25-.93-.43-1.64-.53-2.12-.14-.65-.02-1.22.33-1.73.36-.51.87-.83,1.53-.97,1.44-.3,2.44.5,2.99,2.42l.63,2.62c1.92-3.91,4.27-6.16,7.04-6.75,2.51-.53,4.48.16,5.91,2.07.97,1.27,1.78,3.28,2.42,6.02l.48,2.27.42,2.1c.26,1.25.77,2.82,1.52,4.72.75,1.9,1.26,3.47,1.52,4.7.14.66.03,1.24-.33,1.75-.36.51-.88.83-1.55.97Z"/><path d="m280.72,234.39c-1.11.23-1.96-.18-2.55-1.25-.62-1.15-1.32-2.83-2.09-5.03-.74-2.12-1.26-3.87-1.55-5.27-.08-.39-.19-.99-.32-1.79-.13-.8-.23-1.4-.32-1.79-.59-2.82-1.63-4.08-3.1-3.77-1.99.42-3.59,1.66-4.79,3.71-.61,1.05-1.35,2.97-2.22,5.76,1.2,5.71,1.67,9.15,1.39,10.31-.24,1.02-.83,1.63-1.75,1.83-.64.14-1.25.04-1.83-.27-.57-.32-.92-.78-1.05-1.38-.04-.21-.04-.56,0-1.04.05-.4-.1-1.52-.43-3.34l-.63-3.34-3.42-16.55c-.28-1.88-.49-3.15-.63-3.79-.16-.77-.39-1.47-.68-2.12-.29-.65-.52-1.34-.67-2.08-.13-.63-.02-1.2.35-1.71.37-.51.88-.83,1.54-.97,1.28-.27,2.17.23,2.67,1.5.56,1.4.96,2.69,1.21,3.86.33,1.58.62,3.23.87,4.96.25,1.66.56,3.31.92,4.95l.44,1.97c.94-1.92,2.05-3.44,3.34-4.57,1.29-1.13,2.76-1.86,4.41-2.21,2.6-.55,4.56-.11,5.87,1.3.93,1,1.73,2.83,2.39,5.51l1.09,4.26,1.46,4.58c.59,1.71,1.18,3.2,1.78,4.47.12.24.19.45.23.63.13.62,0,1.18-.38,1.69-.38.51-.9.84-1.56.98Z"/><path d="m307.23,228.89c-.3.06-.91-.15-1.83-.65-.83-.47-1.48-.9-1.92-1.31-1.34,1.1-2.54,1.96-3.6,2.6-1.06.64-1.97,1.04-2.74,1.2-3.67.77-6.55.34-8.64-1.28-1.97-1.53-3.37-4.21-4.18-8.05-.77-3.63-.12-7.01,1.95-10.14,2.06-3.13,4.91-5.08,8.53-5.84,1.36-.29,2.96-.27,4.79.05,2.31.39,3.59,1.18,3.84,2.36.09.41,0,.8-.24,1.18-.04.6.04,1.57.23,2.89.19,1.32.49,3.01.91,5.05.38,1.86.82,3.3,1.33,4.33.29.63,1.07,1.84,2.32,3.65.17.25.43.61.79,1.08l.22.35c.13.6.01,1.14-.34,1.62-.36.48-.82.79-1.4.91Zm-8.19-14.61c-.14-.64-.24-1.35-.31-2.13-.07-.78-.11-1.61-.12-2.5-.64-.16-1.18-.27-1.62-.32-.44-.05-.79-.04-1.04,0-2.43.51-4.32,1.9-5.69,4.17-1.36,2.27-1.78,4.64-1.26,7.12.52,2.46,1.36,4.21,2.53,5.25,1.17,1.04,2.66,1.37,4.48.98,1.5-.32,2.73-.85,3.67-1.59.5-.4,1.17-1.14,2.01-2.21-1.34-3.87-2.22-6.79-2.64-8.77Z"/><path d="m323.78,222.63c.24,1.39-.32,2.23-1.7,2.52-1.14.24-2.11-.23-2.9-1.41l-5.52-8.38-6.36-9.45c-.24-.36-.39-.69-.45-.99-.13-.61,0-1.19.4-1.73.39-.54.91-.87,1.55-1.01.94-.2,1.71.12,2.31.95l9.28,14.47c.67-2.65,1.42-6.44,2.24-11.38.17-1.29.48-3.12.93-5.51.28-1.06.87-1.69,1.76-1.88.64-.14,1.25-.04,1.83.3.58.33.93.8,1.06,1.4.12.57-.5,4.05-1.85,10.45l-2.58,11.64Z"/><path d="m354.96,218.95c-1.35.28-2.26-.26-2.73-1.63l-1.7-4.79c-.59-1.71-1.05-3.33-1.37-4.86-.09-.42-.21-1.14-.37-2.16-.16-1.02-.28-1.74-.37-2.16-.68-3.24-1.65-4.73-2.9-4.46-1.75.37-3.22,1.72-4.4,4.05-1.06,2.12-1.7,4.65-1.93,7.6.09.59.18,1.34.25,2.25.06.77.17,1.51.32,2.21.09.45.28,1.12.57,2,.28.88.47,1.54.57,1.99.14.67.04,1.27-.3,1.78s-.85.84-1.52.98c-.69.14-1.29.05-1.8-.28-.51-.33-.84-.83-.98-1.51-.1-.45-.29-1.11-.58-1.99-.29-.88-.49-1.54-.58-1.99-.33-1.54-.66-3.71-1.01-6.5-.35-2.79-.69-4.95-1.01-6.5-.1-.48-.28-1.19-.53-2.12-.25-.93-.43-1.64-.53-2.12-.14-.65-.02-1.22.34-1.73.36-.51.87-.83,1.53-.97,1.44-.3,2.44.5,2.99,2.42l.62,2.62c1.92-3.91,4.27-6.16,7.05-6.75,2.51-.53,4.48.16,5.91,2.07.97,1.27,1.78,3.28,2.42,6.02l.48,2.27.42,2.1c.26,1.25.77,2.82,1.52,4.72.75,1.9,1.26,3.47,1.52,4.7.14.66.03,1.24-.33,1.75-.36.51-.88.83-1.55.97Z"/></g></g><g><path d="m170.68,271.42c-.43.09-.8-.09-1.12-.55-.28-.39-.51-.61-.69-.67-.16-.04-.51,0-1.07.11-.97.2-1.89,1.17-2.76,2.91-1.19,2.33-1.59,4.39-1.21,6.18.18.86.62,1.55,1.3,2.05.7.52,1.46.7,2.26.53.69-.15,1.34-.47,1.96-.97.35-.28.86-.8,1.54-1.56.32-.36.58-.56.77-.6.29-.06.55,0,.79.17.24.18.39.4.44.67.06.3,0,.59-.21.87-1.44,1.94-3.06,3.1-4.86,3.48-1.38.29-2.67,0-3.85-.86-1.14-.83-1.86-1.96-2.16-3.36-.48-2.27-.02-4.79,1.38-7.57,1.17-2.32,2.56-3.65,4.17-3.99.33-.07.62-.12.89-.14.27-.03.51-.03.72,0,.16-.39.43-.62.8-.7.46-.1.82.15,1.07.73.22.52.42,1.17.58,1.96.06.28.04.53-.07.77-.13.3-.36.48-.69.55Z"/><path d="m179.64,281.91c-1.12.24-2.18.02-3.16-.63-1.1-.73-1.83-1.87-2.21-3.42-.36-1.5-.26-2.92.3-4.23.65-1.55,1.81-2.51,3.48-2.86,1.34-.28,2.48.12,3.43,1.2.76.87,1.27,2.01,1.55,3.4.29,1.49.17,2.84-.36,4.05-.61,1.37-1.61,2.21-3.02,2.5Zm-1.29-9.09c-.98.2-1.65.83-2,1.89-.28.85-.31,1.76-.11,2.72.21.97.63,1.67,1.27,2.1.54.36,1.1.47,1.7.34.7-.15,1.24-.53,1.64-1.14.45-.68.59-1.5.42-2.47-.45-2.61-1.42-3.76-2.92-3.45Z"/><path d="m199.48,277.98c-.55.12-.93-.11-1.15-.67-.27-.71-.61-1.72-1.02-3.03l-1-3.04c-.17-.45-.37-.88-.63-1.28-.35-.55-.67-.8-.93-.75-.25.05-.67.36-1.25.92-.56.52-.92.92-1.07,1.2.13.63.28,1.26.45,1.88l.87,2.62c.35,1.03.6,1.89.74,2.58.06.29.02.56-.12.79-.14.23-.36.38-.65.44-.29.06-.54.01-.77-.14-.22-.15-.37-.38-.43-.67-.17-.81-.5-1.99-1-3.54s-.83-2.73-1-3.54c-.15-.71-.37-1.24-.65-1.59-.42.31-.83.76-1.21,1.34l-.91,1.57c-.07.18-.2.43-.38.74.08.4.17,1,.26,1.8.09.8.18,1.38.26,1.76.04.2.13.48.27.82s.23.6.26.76c.06.27,0,.53-.16.76-.17.23-.38.37-.66.43-.76.16-1.31-.62-1.68-2.34-.08-.4-.17-1.01-.27-1.82-.09-.81-.18-1.42-.27-1.82-.07-.35-.22-.88-.43-1.58-.21-.69-.36-1.22-.43-1.58-.32-1.52-.14-2.35.54-2.49.26-.05.52,0,.79.19.26.18.43.41.48.67.03.13.05.33.07.6.02.28.05.48.08.62l.24,1.05c.2-.79.57-1.54,1.13-2.26.55-.72,1.07-1.13,1.54-1.23,1.05-.22,1.88.15,2.5,1.11.26-.57.62-1.02,1.08-1.38s1.01-.6,1.67-.74c1.12-.24,2.01.21,2.67,1.32.13.22.47,1.13,1.01,2.73.43,1.11,1.08,2.98,1.93,5.6.08.26.03.51-.13.74-.16.23-.39.37-.67.43Z"/><path d="m201.76,263.36c-.32.07-.62.01-.9-.17-.28-.18-.46-.43-.53-.75-.07-.32,0-.62.18-.9.19-.28.44-.45.76-.52.32-.07.62-.01.9.17.28.18.45.43.52.75.07.32.01.62-.17.89-.18.28-.43.45-.76.52Zm2.17,8.05c.08.4.22,1,.42,1.79.19.79.33,1.39.41,1.79.06.3.02.56-.12.78-.14.23-.36.37-.65.43-.29.06-.54.02-.77-.13s-.37-.37-.43-.67c-.08-.4-.22-1-.42-1.79-.19-.79-.33-1.39-.42-1.79-.13-.63-.26-1.42-.4-2.37-.13-.95-.26-1.75-.4-2.38-.06-.3-.02-.56.12-.79.14-.23.36-.37.65-.43.29-.06.54-.02.77.13s.37.37.43.67c.13.63.26,1.42.4,2.37s.26,1.75.4,2.37Z"/><path d="m212.95,274.93c-1.37.29-2.6.11-3.69-.52-1.15-.67-1.87-1.71-2.17-3.14-.29-1.36-.13-2.85.47-4.49.67-1.82,1.63-2.86,2.88-3.12.66-.14,1.42-.14,2.29,0,1.11.18,1.72.55,1.84,1.12.05.25.02.5-.11.73-.13.23-.31.38-.56.43-.19.04-.38.02-.54-.07-.17-.09-.33-.17-.49-.26-.46-.23-1.14-.25-2.04-.06-.68.14-1.23.9-1.64,2.25-.37,1.24-.47,2.28-.3,3.09.19.88.63,1.52,1.34,1.9.66.36,1.43.44,2.32.26.4-.08.81-.28,1.22-.59l1.03-.87c.18-.15.31-.23.4-.25.25-.05.48,0,.7.16.22.16.36.37.41.62.1.49-.31,1.07-1.25,1.74-.82.59-1.53.95-2.12,1.08Z"/><path d="m223.98,263.88c-.37.08-.65,0-.85-.21-.14-.15-.3-.5-.49-1.03-.47.23-1.2.63-2.17,1.19-.99.66-1.42,1.3-1.29,1.93.22.03.42.04.62.04,1.6-.05,2.82.09,3.67.41,1.24.47,2,1.37,2.28,2.71.23,1.09-.07,2.01-.89,2.77-.69.62-1.63,1.06-2.83,1.31-.88.18-1.74.21-2.6.09-1.11-.16-1.73-.57-1.88-1.24-.06-.27,0-.52.17-.77.17-.24.39-.4.65-.45.21-.04.51.06.9.31.19.12.58.17,1.16.15.46-.01.85-.05,1.16-.12.56-.12,1.04-.29,1.44-.51.58-.32.83-.7.74-1.12-.19-.91-.96-1.39-2.3-1.44h-1.09c-.93-.02-1.61-.11-2.04-.29-.62-.26-1.01-.77-1.17-1.52-.29-1.4.15-2.54,1.35-3.41.36-.27.96-.62,1.79-1.05s1.42-.78,1.76-1.04c.25-.18.53-.3.85-.37.29-.06.54-.02.77.13s.37.37.43.67c.04.19.14.47.31.83.16.36.26.63.3.83.06.3.02.56-.12.79s-.36.37-.65.43Z"/><path d="m238.87,269.43c-1.12.24-2.18.03-3.16-.63-1.1-.73-1.83-1.88-2.21-3.42-.36-1.5-.26-2.91.3-4.23.65-1.55,1.81-2.51,3.48-2.86,1.34-.28,2.48.12,3.43,1.19.76.88,1.27,2.01,1.55,3.4.29,1.49.17,2.84-.36,4.05-.61,1.37-1.61,2.21-3.02,2.5Zm-1.29-9.09c-.99.2-1.65.83-2,1.89-.28.85-.31,1.75-.11,2.73s.63,1.67,1.27,2.1c.54.36,1.1.47,1.7.34.7-.15,1.24-.53,1.63-1.14.45-.68.59-1.5.42-2.47-.45-2.61-1.42-3.76-2.92-3.45Z"/><path d="m253.14,261.28l.48,3.42c.24,1.35.34,2.47.28,3.37-.07,1.15-.39,2.05-.94,2.7-.67.79-1.77,1.35-3.29,1.67-.89.19-1.65.28-2.28.29-.88,0-1.37-.25-1.48-.78-.13-.59.1-.95.68-1.08.24-.05.65-.08,1.24-.08.59,0,1.22-.08,1.9-.24,1.28-.29,2.04-1.1,2.26-2.43.15-.88.06-2.17-.28-3.87-.22.75-.54,1.34-.97,1.78s-.96.73-1.61.86c-1.21.26-2.28.05-3.22-.62s-1.54-1.66-1.82-2.98c-.38-1.81-.17-3.37.64-4.69.83-1.36,2.17-2.24,4.02-2.63.62-.13,1.16-.16,1.62-.09.46.07.83.24,1.12.52.72-.13,1.16.19,1.33.97.1.47.16,1.13.19,1.95.04.96.08,1.6.13,1.94Zm-4.14-3.67c-1.27.27-2.16.91-2.67,1.94-.46.92-.56,1.99-.3,3.21.2.97.54,1.66,1.01,2.07.47.41,1.07.54,1.81.38.68-.14,1.25-.66,1.73-1.56.43-.82.61-1.59.54-2.29-.01-.75-.1-1.92-.27-3.5-.31-.15-.62-.25-.93-.29-.31-.04-.62-.03-.93.04Z"/><path d="m264.34,257.29c-.19.04-.6.08-1.25.13.16,1.02.51,2.8,1.04,5.33.06.27.02.51-.12.73-.13.22-.33.36-.59.41-.27.06-.51.01-.72-.14-.21-.15-.35-.35-.4-.62l-.62-2.95c-.21-.98-.44-2.38-.7-4.19-.27-1.96-.49-3.36-.66-4.2l-.29-1.39c-.14-.66-.2-1.15-.18-1.47.03-.62.3-.95.82-.97.2-.11.49-.22.88-.34.39-.12.87-.24,1.44-.36,1.22-.26,2.46-.08,3.71.53,1.37.68,2.19,1.66,2.47,2.96.35,1.66,0,3.11-1.05,4.36-.94,1.12-2.2,1.85-3.77,2.18Zm-1.18-8.07c-.29.06-.56.12-.78.18-.23.06-.42.12-.57.19l.37,1.85.63,4.04,1.13-.1c1.12-.24,2.01-.72,2.66-1.45.71-.8.96-1.73.73-2.79-.16-.75-.7-1.31-1.61-1.68-.85-.34-1.7-.42-2.55-.24Z"/><path d="m277.42,261.3c-1.12.24-2.18.02-3.16-.63-1.1-.73-1.83-1.87-2.21-3.42-.36-1.5-.26-2.92.3-4.23.65-1.55,1.81-2.51,3.48-2.86,1.34-.28,2.48.12,3.43,1.2.76.87,1.27,2.01,1.55,3.4.29,1.49.17,2.84-.36,4.05-.61,1.37-1.61,2.21-3.02,2.5Zm-1.29-9.09c-.98.2-1.65.83-2,1.89-.28.85-.31,1.76-.11,2.72.21.97.63,1.67,1.27,2.1.54.36,1.1.47,1.7.34.7-.15,1.24-.53,1.64-1.14.45-.68.59-1.5.42-2.47-.45-2.61-1.42-3.76-2.92-3.45Z"/><path d="m289.25,249.26c-.14.03-.31.06-.5.09-.19.03-.36.05-.5.08-.15.03-.6.18-1.33.44l1.44,5.89.1.44.12.51c.34,1.46.14,2.27-.59,2.42-.27.06-.52.02-.75-.11-.23-.13-.38-.33-.43-.59-.05-.25-.12-.64-.21-1.15-.09-.51-.16-.9-.21-1.15l-1.44-5.82c-.49.08-1.25.18-2.26.3-.61.04-.98-.22-1.1-.8-.06-.29-.02-.56.12-.79.14-.23.35-.38.63-.44l2.14-.27c-.07-.34-.18-.79-.33-1.36-.15-.57-.25-.98-.31-1.23-.06-.28-.01-.53.14-.76.16-.22.37-.37.66-.42.6-.13,1.06.29,1.36,1.25.07.24.15.54.22.89l.1.59.12.62c.81-.28,1.27-.44,1.39-.46.7-.15,1.16-.21,1.39-.19.44.05.71.32.81.82.06.29.02.56-.12.79-.14.23-.36.37-.65.43Z"/><path d="m298.93,247.22c-.14.03-.31.06-.5.09-.19.03-.36.05-.5.08-.15.03-.6.18-1.33.44l1.44,5.89.1.44.12.51c.34,1.46.14,2.27-.59,2.42-.27.06-.52.02-.75-.11s-.38-.33-.43-.59c-.05-.25-.12-.64-.21-1.15-.09-.51-.16-.9-.21-1.15l-1.44-5.82c-.49.08-1.25.18-2.26.3-.61.04-.98-.22-1.1-.8-.06-.29-.02-.56.12-.79s.35-.38.63-.44l2.14-.27c-.07-.34-.18-.79-.33-1.36-.15-.57-.25-.98-.31-1.23-.06-.28-.01-.53.14-.76.16-.22.37-.37.65-.43.6-.13,1.06.29,1.36,1.25.07.24.15.54.22.89l.1.59.12.62c.81-.28,1.27-.44,1.39-.46.7-.15,1.16-.21,1.39-.19.44.05.71.32.81.82.06.29.02.56-.12.79-.14.23-.36.37-.65.43Z"/><path d="m308.48,254.61c-1.51.32-2.82.2-3.91-.36-1.2-.62-1.96-1.68-2.27-3.19-.37-1.74-.25-3.29.34-4.64.64-1.48,1.73-2.38,3.27-2.7,1.11-.23,2.06-.24,2.84-.01.96.28,1.54.9,1.74,1.85.14.67-.11,1.36-.75,2.06-.28.31-.91.84-1.89,1.57l-3.45,2.62c.49.48,1.05.8,1.66.96s1.3.17,2.04,0c.46-.1.99-.3,1.57-.6.74-.39,1.19-.78,1.34-1.19.15-.4.36-.63.62-.69.23-.05.46,0,.68.13.22.14.36.32.41.56.16.74-.31,1.51-1.39,2.29-.93.67-1.88,1.11-2.85,1.31Zm-2.2-9.08c-.82.17-1.43.63-1.84,1.38-.41.75-.61,1.78-.61,3.11l2.77-2.11c1.09-.84,1.84-1.54,2.27-2.08-.69-.41-1.55-.51-2.59-.29Z"/><path d="m321.2,243.71c.13.85-.12,1.33-.74,1.46-.58.12-.93-.15-1.07-.81-.03-.13-.09-.36-.18-.7l-.21-.84c-1.03.35-1.81.83-2.35,1.43-.5.56-.86,1.32-1.07,2.28l1.18,5.5c.14.67-.12,1.08-.78,1.22-.59.12-.96-.15-1.1-.83l-1.48-7.04c-.05-.22-.11-.55-.18-1-.08-.45-.14-.78-.18-1-.14-.68.08-1.08.67-1.2.66-.14,1.1.35,1.34,1.46,1.02-1.51,2.32-2.43,3.88-2.76.54-.12.99,0,1.34.36.35.35.62.94.79,1.76.07.35.12.58.14.7Z"/></g></svg>