<?xml version="1.0" encoding="UTF-8"?><svg id="Layer_2" xmlns="http://www.w3.org/2000/svg" viewBox="0 0 450 450"><defs><style>.cls-1{fill:#fff;}.cls-2{fill:#702123;stroke:#000;stroke-miterlimit:10;stroke-width:3px;}</style></defs><path class="cls-2" d="m27.25,132.7l91,34-13-84,65,45,26-99,37,91,48-51,9,60,113-57-66,99,91,25-74,55,34,87-71-30v92l-68-78-56,81-16-75-105,94,53-142-109-24,37.15-10.05c15.95-4.32,31.9-8.63,47.85-12.95-24.67-33.33-49.33-66.67-74-100Z"/><polygon class="cls-1" points="196.82 58 174.33 148.75 115.4 103.37 126.42 176.75 49.18 150.68 114.69 239.5 45.89 254.09 135.22 274.25 88.29 393 182.15 311.9 196.82 372.5 248.64 305.15 307.31 378.52 307.31 292.08 368.91 321.56 339.58 245.29 409 198.95 321 178.68 372.82 98.55 275.04 150.68 274.21 88.4 238.87 130.41 227.45 143.76 196.82 58"/><g><path d="m184.79,243.76c-1.52,1.1-4.02,2.32-7.49,3.67-3.2,1.25-5.84,2.09-7.93,2.53-1.5.32-2.62.33-3.37.03-1.01-.4-1.69-1.39-2.02-2.96l-1.02-7.06c-.97-6.5-2.28-13.67-3.93-21.5-.13-.6-.02-1.16.31-1.67.33-.51.81-.83,1.44-.96.64-.13,1.21-.04,1.73.29.51.33.83.8.96,1.4,1.67,7.93,2.99,15.18,3.96,21.76l.38,3.26c.13,1.19.3,2.23.52,3.12,3.88-.77,8.6-2.67,14.15-5.69.24-.12.47-.21.69-.26.64-.13,1.22,0,1.76.38.46.36.75.82.87,1.38.19.9-.15,1.66-1.01,2.28Z"/><path d="m205.83,220.62l-4.39,17.36c-1.09,4.23-1.87,7.74-2.34,10.54l-.61,4.39c-.17,1.09-.74,1.74-1.69,1.94-.62.13-1.2.05-1.74-.24-.53-.29-.86-.72-.98-1.3-.3-1.4.45-5.8,2.24-13.2l-11.03-12.82-1.33-1.32c-.54-.56-.85-1.06-.94-1.49-.12-.58,0-1.13.38-1.66.38-.53.85-.86,1.43-.98.68-.14,1.26,0,1.74.4,3.22,2.78,6.93,6.92,11.11,12.42l1.77-7.95c.66-2.76,1.35-5.16,2.06-7.2.31-.89.85-1.41,1.62-1.57.61-.13,1.19-.04,1.74.27.55.31.89.74,1.01,1.3.06.31.04.68-.07,1.11Z"/><path d="m231.5,236.37c-1.28.27-2.14-.24-2.58-1.52l-1.6-4.48c-.55-1.6-.98-3.11-1.28-4.54-.08-.39-.2-1.06-.34-2.02-.15-.95-.26-1.62-.34-2.01-.64-3.03-1.55-4.42-2.74-4.17-1.66.35-3.05,1.62-4.18,3.8-1.01,1.99-1.62,4.36-1.85,7.12.09.55.16,1.26.23,2.1.06.72.16,1.41.3,2.07.09.42.27,1.04.53,1.86.27.82.44,1.45.53,1.87.13.63.04,1.19-.29,1.66-.33.48-.81.79-1.45.92-.65.14-1.22.05-1.71-.26-.48-.31-.79-.78-.92-1.41-.09-.42-.27-1.04-.54-1.86-.27-.82-.46-1.44-.54-1.86-.3-1.44-.62-3.47-.94-6.08-.32-2.61-.64-4.63-.94-6.08-.09-.45-.26-1.11-.5-1.98-.24-.87-.41-1.53-.5-1.98-.13-.6-.02-1.14.32-1.62.34-.47.82-.78,1.45-.91,1.37-.29,2.31.47,2.83,2.26l.59,2.45c1.83-3.67,4.06-5.78,6.69-6.33,2.38-.5,4.24.14,5.59,1.92.92,1.18,1.68,3.06,2.28,5.63l.45,2.12.39,1.96c.25,1.16.72,2.64,1.43,4.41.71,1.78,1.18,3.24,1.43,4.39.13.62.02,1.16-.32,1.64-.34.47-.83.78-1.47.91Z"/><path d="m254.4,220.51l.98,7.18c.5,2.82.68,5.18.54,7.07-.19,2.41-.9,4.31-2.15,5.71-1.51,1.68-3.95,2.88-7.32,3.59-1.97.42-3.66.64-5.05.67-1.94.04-3.03-.49-3.27-1.6-.26-1.25.25-2.01,1.54-2.28.54-.11,1.45-.18,2.75-.2,1.3-.02,2.7-.2,4.21-.55,2.84-.64,4.53-2.36,5.08-5.16.35-1.86.18-4.57-.53-8.13-.51,1.57-1.24,2.82-2.2,3.76-.96.93-2.15,1.55-3.58,1.85-2.69.57-5.06.16-7.11-1.22-2.05-1.38-3.37-3.45-3.95-6.21-.8-3.79-.29-7.08,1.52-9.88,1.87-2.89,4.86-4.76,8.96-5.62,1.38-.29,2.58-.37,3.58-.23,1.01.14,1.83.5,2.46,1.06,1.6-.29,2.57.37,2.91,2,.21,1,.33,2.36.37,4.1.07,2.01.14,3.37.23,4.08Zm-9.07-7.6c-2.82.59-4.81,1.97-5.97,4.14-1.03,1.95-1.28,4.2-.74,6.75.43,2.03,1.16,3.48,2.19,4.33,1.03.85,2.36,1.11,4,.76,1.5-.32,2.79-1.42,3.86-3.32.97-1.74,1.39-3.35,1.26-4.84,0-1.58-.17-4.03-.5-7.34-.69-.31-1.37-.5-2.05-.58-.68-.08-1.37-.04-2.05.1Z"/><path d="m272.78,227.03c-2.27.48-4.43.49-6.46.04-.33.77-.84,1.23-1.52,1.38-.56.12-1.08.03-1.55-.25s-.77-.71-.88-1.27c-.08-.36-.17-.91-.29-1.63-.11-.72-.21-1.27-.29-1.63-.31-1.49-.82-3.71-1.53-6.65-.71-2.95-1.22-5.17-1.53-6.65-.22-1.02-.62-2.96-1.2-5.82-.59-2.86-.99-4.8-1.21-5.84-.18-.84-.15-1.64.08-2.39.31-.96.9-1.53,1.76-1.71,1.11-.23,1.8.26,2.06,1.48.04.2.06.49.07.89,0,.39.03.69.07.89l.9,4.62,1.09,5.38c1.12-1.1,2.21-1.98,3.29-2.64,1.08-.66,2.13-1.1,3.15-1.31,3.19-.67,6.03-.06,8.51,1.83,2.33,1.78,3.83,4.25,4.5,7.42.67,3.2.15,6.14-1.56,8.83-1.71,2.69-4.19,4.38-7.45,5.06Zm-3.16-19.18c-1.22.26-2.4.84-3.54,1.76-.56.45-1.48,1.37-2.77,2.76l.72,3.65.71,3.28.75,3.45c.78.16,1.86.34,3.25.54.98.07,2.04-.01,3.18-.25,2.15-.45,3.77-1.54,4.85-3.26,1.08-1.72,1.39-3.65.94-5.78-.44-2.09-1.37-3.72-2.77-4.89-1.52-1.26-3.3-1.68-5.33-1.25Z"/><path d="m304.72,199.78l-4.39,17.36c-1.09,4.23-1.87,7.74-2.34,10.54l-.61,4.39c-.17,1.09-.73,1.74-1.68,1.94-.62.13-1.2.05-1.74-.24-.53-.29-.86-.72-.98-1.3-.3-1.4.45-5.8,2.24-13.2l-11.03-12.82-1.33-1.32c-.54-.56-.85-1.06-.94-1.49-.12-.58,0-1.13.38-1.66.38-.53.85-.86,1.43-.98.68-.14,1.26,0,1.74.4,3.22,2.78,6.93,6.92,11.11,12.42l1.77-7.95c.66-2.76,1.35-5.16,2.06-7.2.31-.89.85-1.41,1.62-1.57.61-.13,1.19-.04,1.74.27.55.31.89.74,1.01,1.3.06.31.04.68-.07,1.11Z"/></g></svg>