<?xml version="1.0" encoding="UTF-8"?><svg id="Layer_2" xmlns="http://www.w3.org/2000/svg" viewBox="0 0 450 450"><defs><style>.cls-1{fill:#fff;}.cls-2{fill:#702123;stroke:#000;stroke-miterlimit:10;stroke-width:3px;}</style></defs><g><path class="cls-2" d="m27.25,132.7l91,34-13-84,65,45,26-99,37,91,48-51,9,60,113-57-66,99,91,25-74,55,34,87-71-30v92l-68-78-56,81-16-75-105,94,53-142-109-24,37.15-10.05c15.95-4.32,31.9-8.63,47.85-12.95-24.67-33.33-49.33-66.67-74-100Z"/><polygon class="cls-1" points="199.18 65 178.43 151.96 124.04 108.48 134.21 178.78 62.92 153.81 123.38 238.91 59.89 252.89 142.33 272.22 99.02 386 185.65 308.29 199.18 366.35 247.01 301.82 301.15 372.12 301.15 289.29 358 317.54 330.93 244.46 395 200.06 313.79 180.63 361.61 103.85 271.37 153.81 270.6 94.13 237.99 134.38 227.45 147.18 199.18 65"/><g><path d="m184.79,243.76c-1.52,1.1-4.02,2.32-7.49,3.67-3.2,1.25-5.84,2.09-7.93,2.53-1.5.32-2.62.33-3.37.03-1.01-.4-1.69-1.39-2.02-2.96l-1.02-7.06c-.97-6.5-2.28-13.67-3.93-21.5-.13-.6-.02-1.16.31-1.67s.81-.83,1.44-.96c.64-.13,1.21-.04,1.73.3.51.33.83.8.96,1.4,1.67,7.93,2.99,15.18,3.96,21.76l.38,3.26c.13,1.19.3,2.23.52,3.12,3.88-.78,8.6-2.67,14.15-5.69.24-.12.47-.21.69-.26.64-.13,1.22,0,1.75.38.46.36.75.81.87,1.38.19.9-.15,1.66-1.01,2.28Z"/><path d="m205.83,220.62l-4.39,17.36c-1.09,4.23-1.87,7.74-2.34,10.54l-.61,4.39c-.17,1.09-.74,1.74-1.69,1.94-.62.13-1.2.05-1.74-.24-.54-.29-.86-.72-.98-1.3-.3-1.4.45-5.8,2.24-13.2l-11.03-12.82-1.33-1.32c-.54-.56-.85-1.06-.94-1.49-.12-.58,0-1.13.38-1.66.38-.53.85-.86,1.43-.98.68-.14,1.26,0,1.74.4,3.22,2.78,6.93,6.92,11.11,12.42l1.77-7.95c.66-2.76,1.35-5.16,2.06-7.2.31-.89.85-1.41,1.62-1.57.61-.13,1.19-.04,1.74.27.55.31.89.74,1.01,1.3.06.31.04.68-.07,1.11Z"/><path d="m231.51,236.37c-1.28.27-2.14-.24-2.58-1.52l-1.59-4.48c-.55-1.6-.98-3.11-1.28-4.54-.08-.39-.2-1.06-.34-2.02-.15-.95-.26-1.62-.34-2.01-.64-3.03-1.55-4.42-2.74-4.17-1.66.35-3.05,1.62-4.18,3.8-1.01,1.99-1.62,4.36-1.85,7.11.08.55.16,1.26.23,2.11.06.72.16,1.41.3,2.07.09.42.27,1.04.53,1.87s.44,1.45.53,1.87c.13.63.04,1.19-.29,1.66-.33.48-.81.79-1.45.92-.65.14-1.22.05-1.71-.26-.48-.31-.79-.78-.92-1.41-.09-.42-.27-1.04-.54-1.86-.27-.82-.46-1.44-.54-1.86-.3-1.45-.62-3.47-.94-6.08s-.64-4.63-.94-6.08c-.09-.45-.26-1.11-.5-1.98-.24-.87-.41-1.53-.5-1.98-.13-.6-.02-1.14.32-1.62.34-.48.82-.78,1.45-.91,1.37-.29,2.31.47,2.83,2.26l.58,2.45c1.83-3.67,4.06-5.78,6.69-6.33,2.38-.5,4.24.14,5.59,1.92.92,1.18,1.68,3.06,2.28,5.63l.45,2.12.39,1.96c.25,1.16.72,2.63,1.43,4.41.71,1.78,1.18,3.24,1.42,4.39.13.62.02,1.16-.32,1.64-.34.47-.83.78-1.47.91Z"/><path d="m254.4,220.51l.98,7.18c.5,2.82.68,5.18.54,7.07-.19,2.41-.91,4.31-2.15,5.71-1.51,1.68-3.95,2.88-7.32,3.59-1.97.42-3.66.64-5.05.67-1.95.04-3.03-.49-3.27-1.6-.26-1.25.25-2.01,1.54-2.28.54-.11,1.45-.18,2.75-.2s2.7-.2,4.21-.55c2.84-.64,4.54-2.36,5.08-5.16.35-1.86.18-4.57-.53-8.13-.51,1.57-1.24,2.82-2.2,3.76s-2.15,1.55-3.58,1.85c-2.69.57-5.06.16-7.11-1.22-2.05-1.38-3.37-3.45-3.95-6.21-.8-3.79-.29-7.08,1.52-9.88,1.87-2.89,4.86-4.76,8.96-5.62,1.38-.29,2.57-.37,3.58-.23,1.01.14,1.83.49,2.46,1.06,1.6-.29,2.57.38,2.91,2,.21,1,.33,2.36.38,4.1.07,2.01.14,3.37.23,4.08Zm-9.07-7.6c-2.82.59-4.81,1.97-5.97,4.14-1.03,1.95-1.28,4.2-.74,6.75.43,2.03,1.16,3.48,2.19,4.33,1.03.85,2.37,1.11,4,.76,1.5-.32,2.79-1.42,3.86-3.32.97-1.74,1.39-3.35,1.26-4.84,0-1.58-.17-4.03-.5-7.34-.69-.31-1.37-.5-2.05-.58-.68-.08-1.37-.04-2.05.1Z"/><path d="m272.78,227.03c-2.27.48-4.42.49-6.46.04-.33.77-.84,1.23-1.52,1.38-.56.12-1.08.03-1.55-.25s-.77-.71-.88-1.28c-.08-.36-.17-.91-.29-1.63-.11-.72-.21-1.27-.29-1.63-.31-1.49-.82-3.71-1.53-6.65-.71-2.95-1.22-5.17-1.53-6.66-.22-1.02-.62-2.96-1.2-5.82-.59-2.86-.99-4.8-1.21-5.84-.18-.84-.15-1.64.08-2.39.31-.96.89-1.53,1.76-1.71,1.11-.24,1.8.26,2.06,1.48.04.2.06.49.07.89,0,.39.03.69.07.89l.9,4.62,1.09,5.37c1.12-1.1,2.21-1.98,3.29-2.64,1.08-.66,2.13-1.1,3.16-1.31,3.19-.67,6.03-.06,8.5,1.83,2.33,1.78,3.83,4.25,4.5,7.42.67,3.2.16,6.14-1.56,8.83s-4.19,4.38-7.45,5.06Zm-3.16-19.18c-1.22.26-2.4.84-3.54,1.76-.56.45-1.48,1.37-2.77,2.76l.72,3.65.71,3.28.75,3.45c.78.16,1.86.34,3.26.54.98.07,2.04-.01,3.18-.25,2.15-.45,3.77-1.54,4.85-3.26,1.08-1.72,1.39-3.65.94-5.78-.44-2.09-1.37-3.72-2.78-4.89-1.52-1.26-3.3-1.68-5.33-1.25Z"/><path d="m304.72,199.78l-4.39,17.36c-1.09,4.23-1.87,7.74-2.34,10.54l-.61,4.39c-.17,1.09-.74,1.74-1.69,1.94-.62.13-1.2.05-1.74-.24-.53-.29-.86-.72-.98-1.3-.3-1.4.45-5.8,2.24-13.2l-11.03-12.82-1.33-1.32c-.54-.56-.85-1.06-.94-1.49-.12-.58,0-1.13.38-1.66.38-.53.85-.86,1.43-.98.68-.14,1.26,0,1.74.4,3.22,2.78,6.93,6.92,11.11,12.42l1.77-7.95c.66-2.76,1.35-5.16,2.06-7.2.31-.89.85-1.41,1.62-1.57.61-.13,1.19-.04,1.74.27.55.31.89.74,1.01,1.3.06.31.04.68-.07,1.11Z"/></g></g><g><path d="m223.5,265.18c.02,2.14-.51,3.96-1.58,5.47-1.07,1.51-2.51,2.45-4.31,2.83-1.65.35-2.98.15-3.99-.6-1.02-.75-1.72-2.04-2.11-3.88-.37-1.73-.33-3.6.1-5.61.43-2.01,1.17-3.71,2.22-5.12.7-.94,1.52-1.5,2.48-1.71.61-.13,1.45-.1,2.53.09,1.32.22,2.04.63,2.16,1.21.06.27,0,.54-.15.8-.16.26-.37.41-.66.47-.15.03-.37,0-.67-.12-1.15-.41-2.08-.54-2.79-.39-.5.11-.97.48-1.41,1.11-.22.32-.51.88-.88,1.67-1.11,2.37-1.42,4.76-.91,7.15.26,1.26.64,2.09,1.14,2.51.54.46,1.37.57,2.5.33,1.2-.25,2.16-.85,2.88-1.79.76-1,1.17-2.28,1.22-3.85-1.83.48-3.35,1.18-4.54,2.08-.14.11-.28.17-.43.21-.29.06-.56,0-.8-.19-.22-.17-.37-.39-.42-.67-.08-.37.04-.7.35-1,1.26-1.19,3.66-2.15,7.2-2.9.29-.06.55-.02.78.14.24.15.38.38.45.67.09.44-.03.79-.35,1.05Z"/><path d="m235.07,269.77c-.13.03-.39-.07-.79-.3-.36-.21-.63-.41-.83-.59-.57.49-1.08.87-1.53,1.15-.45.28-.84.46-1.17.52-1.57.33-2.8.13-3.7-.6-.85-.69-1.46-1.89-1.82-3.6-.34-1.62-.08-3.12.8-4.5.87-1.39,2.08-2.24,3.62-2.57.58-.12,1.27-.11,2.05.04.99.18,1.54.54,1.65,1.07.04.18,0,.35-.1.52-.01.27.02.7.11,1.29.09.59.22,1.34.41,2.25.17.83.36,1.47.58,1.93.13.28.46.82,1,1.63.07.11.19.27.34.48l.1.16c.06.27,0,.51-.14.72-.15.21-.35.35-.6.4Zm-3.56-6.53c-.06-.29-.11-.61-.14-.95s-.05-.72-.06-1.11c-.27-.08-.51-.12-.7-.15-.19-.02-.34-.02-.45,0-1.04.22-1.84.83-2.42,1.83-.57,1-.75,2.06-.51,3.16.23,1.1.6,1.88,1.1,2.34.5.47,1.14.62,1.92.46.64-.14,1.16-.37,1.56-.7.21-.18.5-.5.85-.98-.59-1.73-.97-3.03-1.16-3.91Z"/><path d="m250.53,266.69c-.55.12-.93-.11-1.15-.67-.28-.71-.61-1.72-1.02-3.03l-1-3.04c-.16-.45-.37-.88-.63-1.28-.35-.55-.66-.8-.93-.74-.25.05-.67.36-1.25.92-.56.52-.92.92-1.07,1.2.13.63.27,1.26.45,1.88l.87,2.62c.35,1.03.6,1.89.74,2.58.06.29.02.55-.12.78-.14.23-.36.37-.65.43-.29.06-.54.02-.77-.14-.22-.15-.37-.38-.43-.67-.17-.81-.5-1.99-1-3.54-.5-1.55-.83-2.73-1-3.54-.15-.71-.37-1.24-.65-1.59-.42.31-.83.76-1.21,1.34l-.9,1.57c-.07.18-.2.43-.38.74.08.4.17,1,.26,1.8.09.8.18,1.38.25,1.76.04.2.13.47.27.82.14.35.23.6.26.76.06.27,0,.53-.16.76-.17.23-.38.37-.66.43-.76.16-1.31-.62-1.68-2.34-.08-.4-.17-1.01-.27-1.82-.09-.81-.18-1.42-.27-1.82-.08-.35-.22-.88-.43-1.58-.21-.7-.36-1.22-.43-1.59-.32-1.52-.14-2.35.54-2.49.26-.05.52,0,.79.19.26.18.43.41.48.67.03.13.05.33.07.6.02.28.05.48.08.62l.24,1.05c.2-.79.57-1.54,1.13-2.27.55-.72,1.07-1.13,1.54-1.23,1.05-.22,1.88.15,2.5,1.11.26-.57.63-1.03,1.08-1.38.46-.35,1.01-.6,1.67-.74,1.12-.24,2.01.21,2.67,1.32.13.22.47,1.13,1.01,2.73.43,1.11,1.07,2.98,1.93,5.6.08.26.03.51-.13.74-.16.23-.38.37-.67.43Z"/><path d="m258.36,264.65c-1.51.32-2.82.2-3.91-.36-1.2-.62-1.96-1.68-2.27-3.19-.37-1.74-.25-3.29.34-4.64.65-1.48,1.73-2.38,3.27-2.7,1.11-.23,2.06-.24,2.84-.01.96.28,1.54.9,1.74,1.85.14.67-.11,1.36-.75,2.06-.28.31-.91.84-1.89,1.57l-3.45,2.62c.49.48,1.05.8,1.66.96.62.16,1.3.17,2.04,0,.46-.1.99-.3,1.57-.6.74-.39,1.19-.78,1.34-1.19.15-.41.36-.63.62-.69.23-.05.46,0,.68.13.22.14.36.32.41.56.16.74-.31,1.51-1.39,2.29-.93.67-1.88,1.11-2.85,1.31Zm-2.2-9.08c-.82.17-1.43.63-1.84,1.38-.41.75-.61,1.78-.61,3.11l2.77-2.11c1.09-.84,1.84-1.54,2.27-2.08-.69-.41-1.55-.51-2.59-.29Z"/><path d="m269.98,253.65c-.37.08-.65,0-.85-.21-.14-.15-.3-.5-.49-1.03-.47.23-1.2.63-2.17,1.19-.99.66-1.42,1.3-1.29,1.93.22.03.42.04.63.04,1.6-.05,2.82.09,3.67.41,1.24.47,2,1.37,2.28,2.71.23,1.09-.07,2.01-.89,2.77-.69.62-1.63,1.06-2.83,1.31-.88.18-1.74.21-2.6.09-1.11-.16-1.73-.57-1.88-1.24-.06-.27,0-.52.17-.77.17-.25.39-.4.65-.45.21-.04.51.06.9.31.19.12.58.17,1.16.15.46-.01.85-.05,1.16-.12.56-.12,1.04-.29,1.44-.51.58-.33.83-.7.74-1.12-.19-.91-.96-1.39-2.29-1.44h-1.09c-.93-.02-1.61-.11-2.04-.29-.62-.26-1.01-.77-1.17-1.52-.29-1.4.15-2.53,1.35-3.41.36-.27.96-.62,1.79-1.05s1.42-.78,1.76-1.04c.25-.18.53-.3.86-.37.29-.06.54-.02.77.13.22.15.37.37.43.68.04.19.14.47.31.83.16.36.26.63.3.83.06.3.02.56-.12.79-.14.23-.36.37-.65.43Z"/></g></svg>