<?xml version="1.0" encoding="UTF-8"?><svg id="Layer_2" xmlns="http://www.w3.org/2000/svg" viewBox="0 0 450 450"><defs><style>.cls-1{fill:#fff;}.cls-2{fill:#1fa965;stroke:#000;stroke-miterlimit:10;stroke-width:3px;}</style></defs><path class="cls-2" d="m27.25,132.7l91,34-13-84,65,45,26-99,37,91,48-51,9,60,113-57-66,99,91,25-74,55,34,87-71-30v92l-68-78-56,81-16-75-105,94,53-142-109-24,37.15-10.05c15.95-4.32,31.9-8.63,47.85-12.95-24.67-33.33-49.33-66.67-74-100Z"/><polygon class="cls-1" points="194.98 58 172.93 148.48 115.15 103.24 125.95 176.39 50.22 150.4 114.45 238.96 47 253.5 134.58 273.61 88.57 392 180.6 311.15 194.98 371.56 245.78 304.41 303.3 377.56 303.3 291.38 363.7 320.77 334.94 244.73 403 198.53 316.72 178.32 367.53 98.43 271.67 150.4 270.85 88.31 236.2 130.19 225 143.51 194.98 58"/><g><path d="m179.58,245.88c.18.87.34,2.36.48,4.45.1,1.9-.68,3.02-2.33,3.37-1,.21-2.33-.19-3.98-1.21-8.86-5.43-19.47-13.73-31.81-24.89l1.17,6.21,1.23,6.23c.32,1.51.83,3.76,1.52,6.76s1.21,5.26,1.53,6.79c1.03,4.88.6,7.53-1.29,7.92-1,.21-1.86.06-2.57-.45-.65-.45-1.05-1.07-1.21-1.85-.16-.76-.34-1.93-.55-3.5-.21-1.57-.39-2.73-.55-3.5-.24-1.12-.56-2.82-.96-5.07-.4-2.26-.72-3.95-.96-5.08-.25-1.2-.66-3-1.23-5.42-.57-2.41-.97-4.22-1.23-5.42-.24-1.14-.71-2.82-1.4-5.04s-1.16-3.89-1.4-5.04c-.18-.84.02-1.67.59-2.51.57-.84,1.31-1.36,2.22-1.55.96-.2,2.37.6,4.23,2.41,5.95,5.82,11.2,10.59,15.76,14.31,5.42,4.41,11.22,8.5,17.38,12.26-.11-.79-.35-1.94-.73-3.46l-.81-3.41c-1.68-7.97-3.33-14.25-4.94-18.84-.17-.46-.62-1.36-1.34-2.71-.62-1.16-1.01-2.08-1.15-2.77-.44-2.11.3-3.36,2.22-3.77,3.16-.67,5.98,4.89,8.46,16.68.42,2.01,1.03,5.03,1.82,9.04.79,4.02,1.4,7.03,1.82,9.04Z"/><path d="m205.75,221.31l-5.13,22.36c-1.28,5.45-2.18,9.97-2.71,13.57l-.68,5.66c-.2,1.41-.88,2.23-2.04,2.48-.76.16-1.47.05-2.13-.33-.66-.38-1.07-.95-1.22-1.69-.38-1.82.47-7.49,2.56-17.01l-13.7-16.71-1.65-1.73c-.67-.73-1.06-1.38-1.18-1.94-.16-.74,0-1.46.44-2.14.45-.68,1.03-1.1,1.74-1.25.83-.18,1.55,0,2.13.54,3.99,3.63,8.59,9.04,13.8,16.21l2.05-10.24c.77-3.56,1.58-6.65,2.43-9.27.37-1.14,1.02-1.81,1.97-2.01.74-.16,1.46-.03,2.14.37.68.41,1.1.97,1.25,1.7.08.4.06.88-.07,1.44Z"/><path d="m239.3,241.37c-1.29.27-2.28-.24-2.97-1.54-.73-1.4-1.56-3.43-2.48-6.1-.88-2.56-1.5-4.69-1.86-6.38-.1-.47-.23-1.19-.38-2.17-.16-.97-.29-1.69-.39-2.17-.72-3.41-1.93-4.94-3.64-4.58-2.31.49-4.15,1.96-5.52,4.44-.7,1.27-1.54,3.58-2.52,6.93,1.46,6.92,2.03,11.07,1.72,12.47-.27,1.23-.94,1.96-2.01,2.19-.74.16-1.45.04-2.12-.35-.67-.39-1.08-.95-1.23-1.67-.05-.25-.06-.67,0-1.25.05-.48-.13-1.83-.54-4.04l-.77-4.05-4.14-20.03c-.35-2.28-.6-3.81-.77-4.59-.2-.93-.47-1.78-.81-2.57-.35-.79-.61-1.63-.8-2.52-.16-.76-.03-1.45.39-2.06.42-.61,1.01-1,1.78-1.16,1.49-.31,2.53.3,3.12,1.85.66,1.7,1.14,3.26,1.44,4.67.4,1.91.76,3.91,1.07,6,.31,2,.68,4,1.12,5.99l.53,2.39c1.07-2.31,2.35-4.14,3.83-5.49,1.49-1.35,3.19-2.22,5.09-2.62,3.01-.63,5.29-.09,6.83,1.63,1.09,1.21,2.03,3.44,2.83,6.68l1.31,5.16,1.74,5.55c.7,2.07,1.41,3.88,2.11,5.41.14.29.23.55.28.77.16.74.02,1.42-.42,2.04s-1.04,1-1.8,1.16Z"/><path d="m261.35,236.27c-4.1.87-7.64.54-10.62-.98-3.26-1.68-5.32-4.57-6.18-8.65-1-4.72-.68-8.92.93-12.6,1.75-4.01,4.71-6.45,8.87-7.33,3.01-.63,5.58-.65,7.7-.03,2.61.76,4.18,2.44,4.73,5.03.38,1.82-.29,3.68-2.03,5.61-.77.84-2.48,2.27-5.13,4.27l-9.36,7.12c1.33,1.29,2.84,2.16,4.52,2.6,1.68.44,3.52.45,5.54.03,1.25-.26,2.67-.81,4.26-1.64,2.02-1.05,3.23-2.13,3.64-3.23.41-1.1.97-1.73,1.68-1.88.64-.13,1.25-.01,1.85.36.6.38.97.88,1.1,1.52.42,2.01-.83,4.09-3.78,6.23-2.52,1.82-5.09,3.01-7.72,3.56Zm-5.97-24.65c-2.21.47-3.88,1.71-4.99,3.74-1.11,2.03-1.66,4.84-1.66,8.44l7.52-5.74c2.95-2.29,5-4.17,6.15-5.65-1.87-1.12-4.21-1.39-7.02-.79Z"/><path d="m298.94,201.92c.34,2.72.8,5.41,1.36,8.08,1.27,6.04,2.52,10.55,3.73,13.52.09.25.15.45.19.62.15.73.03,1.38-.38,1.96-.41.58-.95.94-1.62,1.08-1.13.24-2.12-.4-3-1.93-1.1,1.24-2.31,2.25-3.61,3.04-1.3.79-2.72,1.34-4.24,1.66-3.76.79-7.14.2-10.13-1.79-3.08-2.03-5.04-5.04-5.89-9.06-1.02-4.85-.56-9,1.4-12.47s4.98-5.63,9.08-6.49c2.11-.44,3.8-.46,5.08-.05l2.96,1.34c-1.36-7.7-2.14-12.91-2.36-15.63-.11-1.67.55-2.65,1.97-2.95,1.65-.35,2.66.36,3.04,2.12.53,2.52,1.34,8.18,2.44,16.95Zm-11.94,3.26c-3.05.64-5.15,2.03-6.29,4.16-1.14,2.13-1.33,5.01-.57,8.64.49,2.34,1.75,4.18,3.77,5.52,2.02,1.34,4.14,1.77,6.38,1.3,1.53-.32,2.75-.87,3.69-1.66.55-.46,1.4-1.42,2.55-2.9.22-.29.43-.63.61-1.01l-1.08-4.69-.64-3.17-.62-3.23c-1-1.32-2.15-2.23-3.45-2.73-1.3-.5-2.75-.57-4.34-.24Z"/><path d="m308.21,181.96l6.39,30.31c.34,1.62-.3,2.6-1.91,2.94-1.62.34-2.59-.3-2.93-1.91-.16-.74-.41-1.85-.77-3.32-.36-1.47-.61-2.57-.76-3.29-.56-2.63-1.36-6.58-2.43-11.85-1.06-5.27-1.87-9.21-2.43-11.85-.34-1.62.3-2.59,1.91-2.94,1.62-.34,2.59.3,2.93,1.91Zm8.6,40.65c.14.65,0,1.28-.42,1.87-.42.59-.95.95-1.6,1.09-.73.15-1.55-.17-2.48-.96-.9-.74-1.42-1.48-1.58-2.23-.14-.65,0-1.27.42-1.85.42-.58.96-.94,1.64-1.08.71-.15,1.53.17,2.48.96.88.74,1.39,1.48,1.55,2.21Z"/></g></svg>