<?xml version="1.0" encoding="UTF-8"?><svg id="Layer_2" xmlns="http://www.w3.org/2000/svg" viewBox="0 0 450 450"><defs><style>.cls-1{fill:#fff;}.cls-2{fill:#a8934a;stroke:#000;stroke-miterlimit:10;stroke-width:3px;}</style></defs><path class="cls-2" d="m27.25,132.7l91,34-13-84,65,45,26-99,37,91,48-51,9,60,113-57-66,99,91,25-74,55,34,87-71-30v92l-68-78-56,81-16-75-105,94,53-142-109-24,37.15-10.05c15.95-4.32,31.9-8.63,47.85-12.95-24.67-33.33-49.33-66.67-74-100Z"/><polygon class="cls-1" points="196.82 58 174.33 148.75 115.4 103.37 126.42 176.75 49.18 150.68 114.69 239.5 45.89 254.09 135.22 274.25 88.29 393 182.15 311.9 196.82 372.5 248.64 305.15 307.31 378.52 307.31 292.08 368.91 321.56 339.58 245.29 409 198.95 321 178.68 372.82 98.55 275.04 150.68 274.21 88.4 238.87 130.41 227.45 143.76 196.82 58"/><g><path d="m178.26,252.03c-4.19.88-7.99.45-11.4-1.31-3.62-1.87-5.85-4.8-6.69-8.79-1.02-4.85-.43-9.59,1.78-14.2,2.47-5.12,6.25-8.22,11.32-9.29,4.89-1.03,8.74-.76,11.55.82,2.93,1.64,4.89,4.79,5.88,9.44,1.02,4.85.55,9.52-1.42,14.01-2.27,5.14-5.94,8.24-11.02,9.31Zm-4.08-29.27c-3.64.77-6.36,3.13-8.16,7.08-1.67,3.63-2.1,7.34-1.31,11.13.57,2.71,2.1,4.69,4.58,5.94,2.37,1.17,5.06,1.44,8.06.81,3.61-.76,6.22-3.11,7.84-7.04,1.45-3.51,1.77-7.18.96-11.01-.71-3.35-2-5.54-3.87-6.57-1.79-.99-4.49-1.1-8.1-.34Z"/><path d="m216.23,223.28c.26,2.1.6,4.18,1.04,6.24.99,4.67,1.96,8.15,2.92,10.44.07.19.12.35.15.48.12.56,0,1.07-.33,1.52-.34.45-.78.74-1.33.85-.92.19-1.73-.3-2.43-1.47-.91.97-1.91,1.76-2.98,2.38s-2.23,1.06-3.48,1.33c-3.07.65-5.82.22-8.25-1.29-2.5-1.54-4.07-3.86-4.72-6.96-.79-3.75-.37-6.97,1.25-9.67,1.62-2.7,4.12-4.4,7.47-5.11,1.72-.36,3.1-.39,4.15-.08l2.4,1.01c-1.04-5.95-1.63-9.98-1.78-12.09-.07-1.29.47-2.05,1.63-2.3,1.35-.29,2.17.25,2.46,1.61.41,1.95,1.02,6.32,1.83,13.11Zm-9.77,2.63c-2.5.53-4.22,1.62-5.17,3.28s-1.13,3.89-.54,6.7c.38,1.81,1.39,3.22,3.02,4.24,1.63,1.02,3.36,1.33,5.19.95,1.25-.26,2.25-.7,3.02-1.32.45-.36,1.15-1.12,2.1-2.27.18-.23.35-.49.51-.79l-.83-3.63-.49-2.45-.48-2.49c-.8-1.02-1.73-1.71-2.79-2.08-1.05-.37-2.24-.42-3.54-.14Z"/><path d="m237.03,239.3c-3.36.71-6.24.49-8.65-.66-2.64-1.27-4.29-3.49-4.96-6.65-.77-3.65-.48-6.9.87-9.76,1.47-3.12,3.9-5.04,7.3-5.76,2.46-.52,4.56-.55,6.29-.09,2.12.56,3.39,1.85,3.81,3.86.29,1.4-.27,2.86-1.71,4.36-.64.66-2.04,1.78-4.22,3.35l-7.71,5.6c1.08.99,2.3,1.65,3.66,1.98,1.36.33,2.87.32,4.52-.03,1.02-.22,2.19-.65,3.49-1.31,1.66-.83,2.66-1.68,3-2.53.35-.86.81-1.35,1.39-1.47.52-.11,1.02-.02,1.51.26.49.29.78.67.88,1.17.33,1.56-.72,3.18-3.14,4.86-2.07,1.43-4.18,2.38-6.34,2.83Zm-4.64-19.04c-1.81.38-3.18,1.36-4.1,2.94-.92,1.58-1.4,3.76-1.43,6.55l6.19-4.51c2.43-1.8,4.12-3.28,5.07-4.43-1.51-.85-3.42-1.04-5.72-.55Z"/><path d="m268.82,233.15c-1.28.27-2.14-.24-2.58-1.52l-1.59-4.48c-.55-1.6-.98-3.11-1.28-4.54-.08-.39-.2-1.06-.34-2.02-.15-.95-.26-1.62-.34-2.01-.64-3.03-1.55-4.42-2.74-4.17-1.66.35-3.06,1.62-4.18,3.8-1.01,1.99-1.62,4.36-1.85,7.11.08.55.16,1.26.23,2.1.06.72.16,1.41.3,2.07.09.42.27,1.04.53,1.86.27.82.44,1.45.53,1.87.13.63.04,1.19-.29,1.66-.33.48-.81.79-1.45.92-.65.14-1.22.05-1.71-.26-.48-.31-.79-.78-.92-1.41-.09-.42-.27-1.04-.54-1.86-.28-.82-.46-1.44-.54-1.86-.3-1.44-.62-3.47-.94-6.08-.32-2.61-.64-4.63-.94-6.08-.09-.45-.26-1.11-.5-1.98-.24-.87-.4-1.53-.5-1.98-.13-.6-.02-1.14.32-1.62.34-.48.82-.78,1.45-.91,1.37-.29,2.31.47,2.83,2.26l.58,2.45c1.83-3.67,4.06-5.78,6.69-6.33,2.38-.5,4.24.14,5.59,1.92.92,1.18,1.68,3.06,2.28,5.63l.45,2.12.39,1.96c.25,1.16.72,2.63,1.43,4.41.71,1.78,1.18,3.24,1.42,4.39.13.62.02,1.16-.32,1.64-.34.47-.83.78-1.47.91Z"/><path d="m286.91,210.86c-.82.17-1.44.03-1.88-.42-.3-.32-.65-1.04-1.06-2.15-1.06.5-2.67,1.35-4.83,2.56-2.2,1.4-3.17,2.76-2.91,4.08.48.06.94.08,1.38.06,3.54-.14,6.24.11,8.12.77,2.73.96,4.39,2.84,4.98,5.63.48,2.29-.2,4.23-2.05,5.84-1.54,1.32-3.63,2.26-6.29,2.82-1.95.41-3.87.49-5.76.25-2.45-.3-3.83-1.16-4.12-2.56-.12-.56.01-1.1.39-1.62.38-.52.87-.84,1.46-.97.46-.1,1.12.12,1.99.64.42.25,1.28.34,2.57.29,1.03-.04,1.89-.13,2.57-.28,1.25-.26,2.32-.63,3.21-1.12,1.29-.7,1.85-1.49,1.66-2.37-.4-1.91-2.09-2.9-5.05-2.98h-2.42c-2.06.01-3.56-.17-4.51-.54-1.37-.53-2.22-1.59-2.55-3.18-.62-2.93.4-5.33,3.07-7.2.81-.57,2.14-1.32,3.99-2.26,1.85-.94,3.16-1.68,3.93-2.22.55-.38,1.19-.65,1.9-.8.64-.13,1.2-.05,1.69.26.49.31.8.78.94,1.41.08.41.3.98.65,1.73.35.75.57,1.32.66,1.73.13.63.04,1.19-.29,1.67-.33.48-.81.78-1.45.92Z"/><path d="m308.11,224.32c-3.36.71-6.24.49-8.65-.66-2.64-1.27-4.29-3.49-4.96-6.65-.77-3.65-.48-6.9.87-9.76,1.47-3.12,3.9-5.04,7.3-5.76,2.46-.52,4.56-.55,6.28-.09,2.12.56,3.39,1.85,3.81,3.86.3,1.4-.27,2.86-1.71,4.36-.64.66-2.04,1.78-4.22,3.35l-7.71,5.6c1.08.99,2.3,1.65,3.66,1.98,1.36.33,2.87.32,4.52-.03,1.02-.22,2.19-.65,3.49-1.31,1.66-.83,2.66-1.68,3-2.53.35-.86.81-1.35,1.39-1.47.52-.11,1.02-.02,1.51.26.49.29.78.67.88,1.17.33,1.56-.72,3.18-3.14,4.86-2.07,1.43-4.18,2.38-6.34,2.83Zm-4.64-19.04c-1.81.38-3.18,1.36-4.1,2.94-.92,1.58-1.4,3.76-1.43,6.55l6.19-4.51c2.43-1.8,4.12-3.28,5.07-4.43-1.51-.85-3.42-1.04-5.72-.55Z"/></g></svg>