<?xml version="1.0" encoding="UTF-8"?><svg id="Layer_2" xmlns="http://www.w3.org/2000/svg" viewBox="0 0 450 450"><defs><style>.cls-1{fill:#fff;}.cls-2{fill:#a22f32;stroke:#000;stroke-miterlimit:10;stroke-width:3px;}</style></defs><path class="cls-2" d="m27.5,126l91,34-13-84,65,45,26-99,37,91,48-51,9,60,113-57-66,99,91,25-74,55,34,87-71-30v92l-68-78-56,81-16-75-105,94,53-142-109-24,37.15-10.05c15.95-4.32,31.9-8.63,47.85-12.95-24.67-33.33-49.33-66.67-74-100Z"/><polygon class="cls-1" points="200.72 53.5 178.43 142.35 120.03 97.93 130.95 169.77 54.4 144.24 119.32 231.21 51.14 245.49 139.67 265.23 93.16 381.5 186.18 302.1 200.72 361.42 252.08 295.48 310.22 367.32 310.22 282.68 371.27 311.55 342.2 236.88 411 191.51 323.79 171.66 375.15 93.2 278.24 144.24 277.41 83.26 242.39 124.39 231.07 137.47 200.72 53.5"/><g><path d="m151.1,256.14c-5.7.88-10.21-.1-13.52-2.95-2.68-2.29-4.72-5.97-6.1-11.05-.63-2.29-1.49-6.91-2.57-13.88-.4-2.57-.66-4.65-.8-6.24-.15-1.68-.16-2.88-.04-3.57.25-1.41.97-2.21,2.16-2.39,1.69-.26,2.77,1.16,3.25,4.26l2.49,16.14c1.72,11.11,6.46,16.07,14.24,14.87,7.32-1.13,9.53-11.05,6.64-29.75-.11-.7-.25-1.59-.42-2.7-.19-1.1-.31-1.83-.37-2.2-.18-1.14-.13-2.17.14-3.09.34-1.18,1.02-1.85,2.03-2,1.83-.28,2.94.83,3.33,3.34.12.75.3,1.89.55,3.41.24,1.52.41,2.66.53,3.41,3.28,21.23-.57,32.7-11.55,34.4Z"/><path d="m196.11,223.2c.2,2.73.5,5.44.92,8.14.94,6.11,1.94,10.67,2.99,13.7.08.25.12.46.15.62.11.73-.05,1.38-.49,1.93-.44.56-1,.89-1.68.99-1.14.18-2.1-.52-2.89-2.09-1.17,1.18-2.43,2.12-3.77,2.84-1.34.71-2.79,1.19-4.33,1.43-3.8.59-7.14-.19-10.02-2.34-2.97-2.19-4.76-5.31-5.39-9.36-.76-4.9-.07-9.02,2.07-12.37,2.14-3.35,5.28-5.35,9.42-5.99,2.13-.33,3.82-.25,5.08.23l2.88,1.5c-.94-7.76-1.44-13-1.5-15.74-.01-1.67.69-2.61,2.12-2.83,1.67-.26,2.64.5,2.92,2.28.39,2.55.9,8.23,1.51,17.06Zm-12.1,2.6c-3.08.47-5.25,1.74-6.51,3.81-1.26,2.06-1.6,4.93-1.04,8.6.37,2.37,1.52,4.27,3.46,5.72,1.94,1.45,4.04,2,6.3,1.65,1.54-.24,2.8-.72,3.77-1.46.57-.43,1.47-1.34,2.7-2.76.24-.28.46-.61.66-.97l-.82-4.75-.46-3.2-.45-3.25c-.93-1.38-2.03-2.35-3.29-2.91-1.27-.57-2.71-.72-4.33-.47Z"/><path d="m222.92,222.24c-1.01.16-1.77-.07-2.28-.69-.35-.43-.74-1.39-1.17-2.86-1.32.56-3.34,1.53-6.06,2.91-2.77,1.63-4.03,3.31-3.79,5.04.58.12,1.15.18,1.69.19,4.33.1,7.63.65,9.89,1.65,3.29,1.46,5.21,4.02,5.78,7.67.46,2.99-.48,5.44-2.83,7.37-1.95,1.58-4.57,2.62-7.85,3.13-2.4.37-4.76.32-7.06-.15-2.98-.59-4.62-1.8-4.9-3.64-.11-.73.08-1.42.57-2.06.49-.64,1.11-1.02,1.84-1.13.57-.09,1.37.24,2.41.98.5.35,1.55.55,3.13.59,1.26.03,2.31-.02,3.16-.15,1.54-.24,2.87-.63,3.99-1.18,1.62-.79,2.35-1.77,2.17-2.93-.38-2.49-2.39-3.91-6.01-4.25l-2.96-.19c-2.52-.16-4.35-.51-5.49-1.07-1.65-.8-2.63-2.23-2.95-4.3-.59-3.83.79-6.84,4.15-9.03,1.02-.67,2.69-1.53,5.01-2.59,2.31-1.06,3.96-1.91,4.93-2.55.7-.45,1.49-.74,2.37-.87.79-.12,1.47.04,2.06.47.58.44.94,1.07,1.07,1.89.08.53.32,1.29.71,2.29.39.99.62,1.75.71,2.28.13.83-.02,1.53-.45,2.12-.43.59-1.03.95-1.82,1.07Z"/><path d="m245.61,242.08c-3.08.48-5.91-.25-8.48-2.18-2.87-2.15-4.69-5.35-5.48-9.6-.75-4.13-.27-7.94,1.44-11.43,1.99-4.12,5.28-6.53,9.86-7.24,3.67-.57,6.71.68,9.11,3.75,1.92,2.48,3.15,5.63,3.69,9.46.57,4.08.05,7.72-1.58,10.92-1.84,3.63-4.7,5.74-8.57,6.34Zm-2.14-24.82c-2.7.4-4.6,2.01-5.71,4.82-.87,2.26-1.1,4.71-.69,7.37.41,2.66,1.46,4.62,3.13,5.88,1.4,1.04,2.92,1.44,4.55,1.18,1.91-.29,3.44-1.24,4.6-2.85,1.32-1.78,1.82-3.99,1.51-6.63-.84-7.14-3.31-10.4-7.4-9.78Z"/><path d="m268.31,214.77l1.7,13.73c.22,1.45.48,3.59.77,6.42.1,1.86-.66,2.92-2.27,3.17-1.8.28-2.84-.52-3.13-2.39-.34-2.22-.76-5.57-1.24-10.04-.49-4.48-.9-7.83-1.24-10.04-.45-2.9-.91-6.22-1.4-9.96-.49-3.75-.95-7.07-1.4-9.96-.28-1.83.47-2.89,2.27-3.17,1.82-.28,2.87.5,3.15,2.33.45,2.9.91,6.22,1.4,9.96.48,3.75.95,7.07,1.4,9.96Z"/><path d="m300.91,219.74l.79,9.34c.46,3.68.54,6.74.26,9.17-.37,3.1-1.35,5.49-2.95,7.19-1.94,2.04-4.99,3.39-9.15,4.03-2.44.38-4.51.53-6.21.45-2.38-.1-3.68-.88-3.91-2.33-.25-1.63.42-2.57,2.01-2.82.66-.1,1.78-.11,3.38-.03,1.59.08,3.32-.04,5.18-.36,3.51-.6,5.68-2.68,6.5-6.24.53-2.37.47-5.88-.19-10.53-.71,1.99-1.67,3.54-2.9,4.67-1.22,1.13-2.72,1.83-4.48,2.1-3.32.51-6.19-.2-8.62-2.15s-3.93-4.72-4.48-8.33c-.76-4.95.04-9.16,2.42-12.62,2.45-3.57,6.21-5.75,11.27-6.53,1.7-.26,3.17-.26,4.39,0,1.22.26,2.21.79,2.95,1.57,1.97-.25,3.12.69,3.45,2.82.2,1.3.28,3.07.23,5.32-.03,2.6-.01,4.36.06,5.29Zm-10.67-10.55c-3.48.54-5.99,2.16-7.53,4.85-1.37,2.43-1.8,5.31-1.28,8.65.41,2.66,1.22,4.58,2.44,5.76s2.83,1.62,4.85,1.31c1.85-.29,3.49-1.61,4.91-3.97,1.28-2.17,1.88-4.21,1.81-6.14.08-2.04.01-5.21-.2-9.52-.82-.45-1.65-.76-2.48-.91-.83-.15-1.67-.16-2.51-.04Z"/><path d="m324.78,204.19c-.38.06-.84.11-1.37.16-.53.04-.98.1-1.37.16-.42.07-1.65.4-3.68.99l3.04,16.18.21,1.21.24,1.4c.69,4.01.04,6.16-1.96,6.47-.73.11-1.41-.03-2.02-.42-.62-.39-.98-.95-1.09-1.66-.11-.7-.24-1.75-.4-3.15-.16-1.4-.29-2.45-.4-3.15l-3.03-15.98c-1.35.15-3.41.31-6.18.48-1.67.03-2.62-.75-2.87-2.35-.12-.81.02-1.51.43-2.12.41-.61,1-.97,1.77-1.09l5.85-.43c-.14-.94-.38-2.18-.71-3.73-.32-1.56-.54-2.68-.65-3.38-.12-.77.05-1.45.5-2.04.45-.59,1.07-.94,1.83-1.06,1.65-.26,2.82.94,3.51,3.6.16.67.31,1.48.46,2.44l.19,1.6.24,1.71c2.23-.64,3.51-.99,3.84-1.04,1.91-.29,3.17-.4,3.78-.3,1.18.2,1.87.97,2.08,2.33.12.81-.02,1.51-.45,2.11-.42.6-1.03.96-1.82,1.08Z"/><path d="m335.38,183.85l4.73,30.61c.25,1.63-.44,2.57-2.07,2.83-1.63.25-2.58-.44-2.83-2.07-.12-.75-.31-1.87-.59-3.36-.28-1.49-.47-2.6-.58-3.33-.41-2.66-1-6.65-1.78-11.96s-1.37-9.3-1.78-11.96c-.25-1.63.44-2.57,2.07-2.83,1.63-.25,2.57.44,2.83,2.07Zm6.37,41.06c.1.66-.07,1.27-.52,1.84-.45.57-1,.9-1.66,1-.74.11-1.54-.25-2.42-1.09-.85-.79-1.34-1.56-1.46-2.31-.1-.66.07-1.27.52-1.83.45-.56,1.01-.89,1.69-.99.71-.11,1.52.25,2.42,1.09.84.79,1.31,1.55,1.42,2.29Z"/></g></svg>