<?xml version="1.0" encoding="UTF-8"?><svg id="Layer_2" xmlns="http://www.w3.org/2000/svg" viewBox="0 0 450 450"><defs><style>.cls-1{fill:#fff;}.cls-2{fill:#0d462a;stroke:#000;stroke-miterlimit:10;stroke-width:3px;}</style></defs><path class="cls-2" d="m27.25,132.7l91,34-13-84,65,45,26-99,37,91,48-51,9,60,113-57-66,99,91,25-74,55,34,87-71-30v92l-68-78-56,81-16-75-105,94,53-142-109-24,37.15-10.05c15.95-4.32,31.9-8.63,47.85-12.95-24.67-33.33-49.33-66.67-74-100Z"/><polygon class="cls-1" points="196.82 58 174.33 148.75 115.4 103.37 126.42 176.75 49.18 150.68 114.69 239.5 45.89 254.09 135.22 274.25 88.29 393 182.15 311.9 196.82 372.5 248.64 305.15 307.31 378.52 307.31 292.08 368.91 321.56 339.58 245.29 409 198.95 321 178.68 372.82 98.55 275.04 150.68 274.21 88.4 238.87 130.41 227.45 143.76 196.82 58"/><g><path d="m172.54,248.15c-1.37.29-2.9-1.12-4.61-4.21-.65-1.18-1.6-3.29-2.84-6.32-1.47.52-3.38,1.29-5.72,2.31l-5.68,2.41c-.36,1.99-1.06,4.95-2.11,8.86-.31.89-.87,1.42-1.69,1.59-.59.12-1.17.03-1.72-.28-.55-.31-.89-.76-1.02-1.37-.14-.67.44-3.47,1.74-8.39-.33-.31-.54-.71-.64-1.18-.24-1.14.33-2.02,1.72-2.65,1.06-3.36,2.47-7.26,4.23-11.7,2.4-6.06,4.03-9.18,4.89-9.36,1.17-.25,2.14.35,2.89,1.81l2.89,6.77,6.4,13.92,1.97,3.06c.67,1.05,1.04,1.76,1.12,2.14.13.6,0,1.16-.37,1.66-.37.5-.86.82-1.45.94Zm-12.93-22.39l-4.33,11.04c1.71-.81,4.32-1.91,7.84-3.3l-3.52-7.74Z"/><path d="m198.72,243.43c-.28.06-.86-.14-1.73-.6-.79-.43-1.39-.84-1.82-1.22-1.27,1.03-2.41,1.84-3.42,2.45-1.01.6-1.87.98-2.6,1.13-3.47.73-6.2.34-8.18-1.17-1.87-1.42-3.18-3.93-3.94-7.52-.72-3.39-.09-6.56,1.87-9.49s4.66-4.76,8.09-5.49c1.29-.27,2.81-.26,4.54.03,2.19.36,3.39,1.09,3.63,2.2.08.38,0,.75-.23,1.1-.04.56.03,1.46.21,2.7.17,1.24.46,2.81.84,4.72.35,1.74.77,3.09,1.25,4.04.28.59,1.01,1.72,2.18,3.41.16.23.41.57.75,1.01l.21.33c.12.56,0,1.07-.33,1.52-.34.45-.78.74-1.33.85Zm-7.71-13.65c-.13-.6-.22-1.27-.29-1.99-.07-.73-.1-1.5-.11-2.34-.61-.15-1.12-.25-1.54-.29-.42-.04-.75-.04-.99,0-2.3.49-4.1,1.79-5.4,3.92-1.3,2.13-1.7,4.35-1.21,6.66.48,2.3,1.28,3.94,2.38,4.9,1.1.97,2.52,1.27,4.24.91,1.43-.3,2.58-.8,3.48-1.5.48-.38,1.12-1.07,1.91-2.07-1.26-3.62-2.08-6.35-2.47-8.2Z"/><path d="m218.42,221.58c.27,1.78-.29,2.81-1.67,3.1-1.28.27-2.06-.29-2.35-1.68-.06-.27-.18-.75-.38-1.46l-.44-1.75c-2.29.76-4.04,1.78-5.24,3.06-1.13,1.19-1.94,2.8-2.43,4.82l2.48,11.52c.3,1.42-.29,2.28-1.76,2.59-1.31.28-2.11-.29-2.41-1.71l-3.11-14.77c-.1-.46-.22-1.16-.38-2.09s-.29-1.63-.38-2.09c-.3-1.42.21-2.26,1.51-2.54,1.46-.31,2.44.7,2.94,3.03,2.3-3.2,5.19-5.16,8.67-5.89,1.2-.25,2.19-.01,2.97.72.77.73,1.34,1.96,1.71,3.68.15.73.25,1.22.29,1.48Z"/><path d="m245.2,233.54c-1.05.22-1.86-.17-2.41-1.16-.58-1.08-1.24-2.65-1.97-4.71-.7-1.98-1.18-3.62-1.46-4.92-.08-.36-.18-.92-.3-1.67-.12-.75-.22-1.31-.29-1.67-.56-2.64-1.53-3.81-2.93-3.51-1.89.4-3.4,1.56-4.55,3.49-.58.99-1.29,2.78-2.12,5.39,1.13,5.34,1.56,8.56,1.29,9.64-.23.96-.79,1.53-1.66,1.71-.61.13-1.18.05-1.73-.25-.54-.3-.87-.72-.99-1.28-.04-.2-.04-.52,0-.97.04-.38-.09-1.42-.4-3.12l-.59-3.13-3.19-15.48c-.26-1.76-.46-2.94-.58-3.55-.15-.72-.36-1.38-.64-1.99-.28-.61-.49-1.26-.63-1.94-.12-.59-.01-1.12.34-1.6.35-.48.84-.78,1.46-.91,1.22-.26,2.06.21,2.53,1.4.52,1.31.9,2.51,1.13,3.61.31,1.47.58,3.02.82,4.64.23,1.55.52,3.09.86,4.63l.41,1.85c.89-1.8,1.95-3.23,3.18-4.29,1.23-1.06,2.62-1.75,4.18-2.08,2.46-.52,4.32-.12,5.56,1.2.88.93,1.63,2.65,2.25,5.15l1.03,3.98,1.37,4.28c.55,1.6,1.11,2.99,1.67,4.17.11.23.18.42.22.59.12.58,0,1.1-.36,1.58-.37.48-.86.79-1.48.92Z"/><path d="m268.22,214.49c.21,1.01.54,2.52.98,4.54.44,2.02.77,3.53.98,4.54.07.31.19.77.38,1.39.18.62.31,1.09.38,1.39.13.6.02,1.14-.33,1.62-.35.48-.84.78-1.46.91-1.14.24-2.01-.27-2.6-1.54-1.66,1.3-3.71,2.21-6.13,2.72-1.95.41-3.64.34-5.09-.2-1.6-.6-2.71-1.73-3.35-3.4-1.36-3.59-2.35-6.84-2.96-9.75-.4-1.92-.64-4.16-.71-6.71-.05-1.26.53-2.02,1.73-2.28.64-.13,1.21-.05,1.73.24.51.29.83.75.96,1.35.14.65.25,1.7.33,3.16.08,1.46.2,2.56.36,3.31.49,2.34,1,4.33,1.51,5.97.51,1.64,1.04,2.92,1.58,3.86.54.15,1.07.24,1.57.27.5.03.98,0,1.45-.1,1.99-.42,4.03-1.16,6.11-2.23l-.92-4.27-.9-4.07c-.64-3.03-1.05-5.69-1.24-7.98-.11-1.32.48-2.12,1.75-2.39.64-.13,1.21-.05,1.73.25.51.3.82.75.91,1.35l1.28,8.04Z"/><path d="m287.97,206.24c-.82.17-1.44.03-1.88-.42-.3-.32-.65-1.04-1.06-2.15-1.06.5-2.67,1.35-4.83,2.56-2.2,1.4-3.17,2.76-2.91,4.08.48.06.94.08,1.39.06,3.54-.14,6.24.11,8.12.77,2.73.96,4.39,2.84,4.98,5.63.48,2.29-.2,4.23-2.05,5.84-1.54,1.32-3.63,2.26-6.29,2.82-1.95.41-3.87.49-5.76.25-2.45-.3-3.83-1.16-4.12-2.56-.12-.56.01-1.1.39-1.62.38-.52.87-.84,1.46-.97.46-.1,1.12.12,1.99.63.42.25,1.28.34,2.57.29,1.03-.04,1.89-.13,2.57-.28,1.25-.26,2.32-.63,3.21-1.12,1.29-.7,1.85-1.49,1.66-2.37-.4-1.91-2.08-2.9-5.05-2.98h-2.42c-2.06.01-3.57-.17-4.51-.54-1.37-.53-2.22-1.59-2.55-3.18-.62-2.93.4-5.33,3.07-7.2.81-.57,2.14-1.32,3.99-2.26,1.85-.94,3.16-1.68,3.93-2.22.56-.38,1.19-.65,1.9-.8.64-.13,1.2-.05,1.69.26.49.31.8.78.94,1.41.09.41.3.98.66,1.73.35.75.57,1.32.66,1.73.13.63.04,1.19-.29,1.67-.33.48-.81.79-1.45.92Z"/></g></svg>