<?xml version="1.0" encoding="UTF-8"?><svg id="Layer_2" xmlns="http://www.w3.org/2000/svg" viewBox="0 0 450 450"><defs><style>.cls-1{fill:#fff;}.cls-2{fill:#5777a9;stroke:#000;stroke-miterlimit:10;stroke-width:3px;}</style></defs><path class="cls-2" d="m27.25,132.7l91,34-13-84,65,45,26-99,37,91,48-51,9,60,113-57-66,99,91,25-74,55,34,87-71-30v92l-68-78-56,81-16-75-105,94,53-142-109-24,37.15-10.05c15.95-4.32,31.9-8.63,47.85-12.95-24.67-33.33-49.33-66.67-74-100Z"/><polygon class="cls-1" points="196.82 58 174.33 148.75 115.4 103.37 126.42 176.75 49.18 150.68 114.69 239.5 45.89 254.09 135.22 274.25 88.29 393 182.15 311.9 196.82 372.5 248.64 305.15 307.31 378.52 307.31 292.08 368.91 321.56 339.58 245.29 409 198.95 321 178.68 372.82 98.55 275.04 150.68 274.21 88.4 238.87 130.41 227.45 143.76 196.82 58"/><g><path d="m141.68,257.51c-3.08,1.94-7.22,3.46-12.42,4.55-.64.13-1.3-.02-1.99-.47-.69-.45-1.1-.97-1.23-1.58l-1.29-6.12c-.42-2-.89-4.9-1.41-8.67-.55-4.07-1-7.01-1.35-8.81-.29-1.29-.61-3.23-.97-5.82-.04-.72.1-1.24.44-1.54,1.9-1.01,4.13-1.79,6.7-2.33,2.61-.55,5.3-.24,8.06.94,3.18,1.35,5.08,3.45,5.68,6.3.76,3.61-.13,6.76-2.66,9.46,2.42.43,4.29,1.07,5.63,1.93,1.34.86,2.14,1.94,2.41,3.23.36,1.7-.27,3.54-1.88,5.54-1.12,1.41-2.36,2.54-3.73,3.4Zm-12.61-26.5c-1.62.34-2.74.63-3.38.87l.73,3.69,1.27,8.24c2.14-.28,3.29-.44,3.43-.48,2.21-.64,3.9-1.69,5.08-3.14,1.27-1.57,1.69-3.34,1.28-5.3-.28-1.33-1.32-2.4-3.12-3.21-1.8-.81-3.57-1.03-5.3-.66Zm6.05,16.33l-2.44.14c-.19.04-.48.11-.87.22-.39.1-.69.18-.9.22-.8.17-1.67.29-2.6.35.28,1.79.57,3.37.86,4.76l.92,4.36c3.86-.95,6.92-2.13,9.18-3.56.96-.6,1.83-1.4,2.61-2.4.75-.92,1.09-1.56,1.01-1.93-.14-.66-1.25-1.2-3.32-1.63-1.56-.33-3.05-.51-4.46-.53Z"/><path d="m164.58,254.57c-3.36.71-6.24.49-8.65-.66-2.64-1.27-4.29-3.49-4.96-6.65-.77-3.65-.48-6.9.87-9.76,1.47-3.12,3.9-5.04,7.3-5.76,2.46-.52,4.56-.55,6.29-.09,2.12.56,3.39,1.85,3.81,3.86.29,1.4-.28,2.86-1.71,4.36-.64.66-2.04,1.78-4.23,3.35l-7.71,5.6c1.08.99,2.3,1.65,3.66,1.97,1.36.33,2.87.32,4.52-.03,1.02-.22,2.19-.65,3.49-1.31,1.65-.83,2.66-1.68,3-2.53.35-.86.81-1.35,1.39-1.47.52-.11,1.02-.02,1.51.27.49.29.78.67.89,1.17.33,1.56-.72,3.18-3.14,4.86-2.07,1.43-4.18,2.38-6.34,2.83Zm-4.64-19.04c-1.81.38-3.18,1.36-4.1,2.94-.92,1.58-1.4,3.76-1.43,6.55l6.19-4.51c2.43-1.8,4.12-3.28,5.07-4.43-1.51-.85-3.42-1.04-5.72-.55Z"/><path d="m190.58,231.15c-.82.17-1.44.03-1.88-.42-.3-.32-.65-1.04-1.06-2.15-1.06.5-2.67,1.35-4.83,2.56-2.2,1.4-3.17,2.76-2.91,4.08.48.06.94.08,1.38.06,3.54-.14,6.24.11,8.12.77,2.73.96,4.39,2.84,4.98,5.63.48,2.29-.2,4.23-2.05,5.84-1.54,1.32-3.63,2.26-6.29,2.82-1.95.41-3.87.49-5.76.25-2.45-.3-3.83-1.16-4.12-2.56-.12-.56.01-1.1.39-1.62.38-.52.87-.84,1.46-.97.46-.1,1.12.12,1.99.63.42.25,1.28.35,2.57.29,1.03-.04,1.89-.13,2.57-.28,1.25-.26,2.32-.63,3.21-1.12,1.29-.7,1.85-1.49,1.66-2.37-.4-1.91-2.09-2.9-5.05-2.98h-2.42c-2.06.01-3.56-.17-4.51-.54-1.37-.53-2.22-1.59-2.55-3.17-.62-2.93.4-5.33,3.07-7.2.81-.57,2.14-1.32,3.99-2.26,1.85-.94,3.16-1.68,3.93-2.22.55-.38,1.19-.65,1.9-.8.64-.13,1.2-.05,1.69.26.49.31.8.78.94,1.41.08.41.3.98.65,1.73.35.75.57,1.32.66,1.73.13.63.04,1.19-.29,1.67-.33.48-.81.78-1.45.92Z"/><path d="m212.29,224.78c-.31.07-.68.13-1.11.19-.43.06-.8.12-1.11.19-.34.07-1.33.39-2.96.95l3.04,12.35.22.92.25,1.07c.71,3.06.25,4.76-1.37,5.1-.59.12-1.15.05-1.66-.22-.51-.27-.83-.68-.95-1.23-.11-.53-.26-1.34-.44-2.41-.18-1.07-.33-1.88-.44-2.41l-3.04-12.19c-1.09.19-2.77.42-5.02.69-1.36.11-2.17-.45-2.42-1.67-.13-.62-.04-1.17.28-1.66.31-.49.78-.8,1.41-.93l4.75-.63c-.15-.72-.39-1.67-.71-2.85-.32-1.19-.54-2.04-.65-2.58-.12-.59-.01-1.12.34-1.6.35-.48.84-.78,1.46-.91,1.34-.28,2.33.58,2.99,2.6.15.51.31,1.13.46,1.86l.21,1.23.25,1.31c1.79-.61,2.82-.95,3.09-1,1.54-.33,2.57-.47,3.07-.43.96.09,1.56.65,1.78,1.69.13.62.03,1.17-.29,1.65-.33.49-.81.8-1.44.93Z"/><path d="m234.28,221.94c-.82.17-1.44.03-1.88-.42-.3-.32-.65-1.04-1.06-2.15-1.06.5-2.67,1.35-4.83,2.56-2.2,1.4-3.17,2.76-2.91,4.08.48.06.94.08,1.38.06,3.54-.14,6.24.11,8.12.77,2.73.96,4.39,2.84,4.98,5.63.48,2.29-.2,4.23-2.05,5.84-1.54,1.32-3.63,2.26-6.29,2.82-1.95.41-3.87.49-5.76.25-2.45-.3-3.83-1.16-4.12-2.56-.12-.56.01-1.1.39-1.62.38-.52.87-.84,1.46-.97.46-.1,1.12.12,1.99.63.42.25,1.28.34,2.57.29,1.03-.04,1.89-.13,2.57-.28,1.25-.26,2.32-.63,3.21-1.12,1.29-.7,1.85-1.49,1.66-2.37-.4-1.91-2.09-2.9-5.05-2.98h-2.42c-2.06.01-3.56-.17-4.51-.54-1.37-.53-2.22-1.59-2.55-3.17-.62-2.93.4-5.33,3.07-7.2.81-.57,2.14-1.32,3.99-2.26,1.85-.94,3.16-1.68,3.93-2.22.55-.38,1.19-.65,1.9-.8.64-.13,1.2-.05,1.69.26.49.31.8.78.94,1.41.09.41.3.98.66,1.73.35.75.57,1.32.66,1.73.13.63.04,1.19-.29,1.67-.33.48-.81.78-1.45.92Z"/><path d="m255.47,235.41c-3.36.71-6.24.49-8.65-.66-2.64-1.27-4.29-3.49-4.96-6.65-.77-3.65-.48-6.9.87-9.76,1.47-3.12,3.9-5.04,7.3-5.76,2.46-.52,4.56-.55,6.29-.09,2.12.56,3.39,1.85,3.81,3.86.3,1.4-.27,2.86-1.71,4.36-.64.66-2.04,1.78-4.23,3.35l-7.71,5.6c1.08.99,2.3,1.65,3.66,1.98,1.36.33,2.87.32,4.52-.03,1.02-.22,2.19-.65,3.49-1.31,1.65-.83,2.66-1.68,3-2.53.35-.86.81-1.35,1.39-1.47.52-.11,1.02-.02,1.51.26.49.29.78.67.89,1.17.33,1.56-.72,3.18-3.14,4.86-2.07,1.43-4.18,2.38-6.34,2.83Zm-4.64-19.04c-1.81.38-3.18,1.36-4.1,2.94s-1.4,3.76-1.43,6.55l6.19-4.51c2.43-1.8,4.12-3.28,5.07-4.43-1.51-.85-3.42-1.04-5.72-.55Z"/><path d="m272.03,213.63l1.87,10.53c.23,1.11.52,2.75.85,4.92.15,1.43-.43,2.29-1.74,2.56-1.46.31-2.33-.26-2.63-1.69-.36-1.7-.81-4.26-1.37-7.7-.55-3.44-1.01-6-1.37-7.7-.47-2.22-.96-4.76-1.49-7.63s-1.03-5.41-1.49-7.63c-.3-1.4.28-2.26,1.74-2.56,1.47-.31,2.35.24,2.65,1.64.47,2.22.96,4.76,1.49,7.63s1.03,5.41,1.49,7.63Z"/><path d="m284.52,211l1.87,10.53c.23,1.11.52,2.75.85,4.92.15,1.43-.43,2.29-1.74,2.56-1.46.31-2.33-.25-2.64-1.68-.36-1.7-.81-4.26-1.37-7.7-.55-3.44-1.01-6-1.37-7.7-.47-2.22-.96-4.76-1.49-7.63s-1.02-5.41-1.49-7.63c-.3-1.4.28-2.26,1.74-2.56,1.47-.31,2.35.24,2.65,1.64.47,2.22.96,4.76,1.49,7.63s1.03,5.41,1.49,7.63Z"/><path d="m305.45,224.87c-3.36.71-6.24.49-8.65-.66-2.64-1.27-4.29-3.49-4.96-6.65-.77-3.65-.48-6.9.87-9.76,1.47-3.12,3.9-5.04,7.3-5.76,2.46-.52,4.56-.55,6.29-.09,2.12.56,3.39,1.85,3.81,3.86.3,1.4-.27,2.86-1.71,4.36-.64.66-2.04,1.78-4.22,3.35l-7.71,5.6c1.08.99,2.3,1.65,3.66,1.98,1.36.33,2.87.32,4.52-.03,1.02-.22,2.19-.65,3.49-1.31,1.65-.83,2.66-1.68,3-2.53.35-.86.81-1.35,1.39-1.47.52-.11,1.02-.02,1.51.26.49.29.78.67.88,1.17.33,1.56-.72,3.18-3.14,4.86-2.07,1.43-4.18,2.38-6.33,2.83Zm-4.64-19.04c-1.81.38-3.18,1.36-4.1,2.94-.92,1.58-1.4,3.76-1.43,6.55l6.19-4.51c2.43-1.8,4.12-3.28,5.07-4.43-1.51-.85-3.42-1.04-5.72-.55Z"/><path d="m333.89,201.63c.27,1.77-.29,2.81-1.67,3.1-1.28.27-2.06-.29-2.35-1.68-.06-.27-.18-.75-.38-1.46l-.44-1.75c-2.29.76-4.04,1.78-5.24,3.06-1.13,1.19-1.94,2.8-2.43,4.82l2.48,11.52c.3,1.42-.29,2.28-1.76,2.59-1.31.28-2.11-.29-2.41-1.71l-3.11-14.77c-.1-.46-.22-1.16-.38-2.09-.16-.93-.29-1.63-.38-2.1-.3-1.42.21-2.26,1.51-2.54,1.46-.31,2.44.7,2.94,3.03,2.3-3.19,5.19-5.16,8.67-5.89,1.2-.25,2.19-.01,2.97.71.77.73,1.34,1.96,1.71,3.68.15.73.25,1.22.29,1.48Z"/><path d="m339.3,183.41l4.94,23.42c.26,1.25-.27,2.01-1.59,2.29-1.32.28-2.11-.21-2.38-1.45-.12-.58-.32-1.43-.6-2.57s-.48-1.98-.59-2.54c-.43-2.03-1.05-5.09-1.87-9.15-.82-4.07-1.44-7.12-1.87-9.15-.26-1.25.27-2.01,1.59-2.29,1.32-.28,2.11.21,2.38,1.46Zm6.65,31.41c.11.5-.01.99-.36,1.45-.34.46-.78.75-1.32.86-.59.12-1.27-.11-2.01-.72-.72-.56-1.15-1.13-1.27-1.71-.11-.51.01-.99.36-1.44.35-.45.79-.74,1.34-.85.58-.12,1.25.12,2.01.72.71.57,1.12,1.13,1.24,1.7Z"/></g></svg>