<?xml version="1.0" encoding="UTF-8"?><svg id="Layer_2" xmlns="http://www.w3.org/2000/svg" viewBox="0 0 450 450"><defs><style>.cls-1{fill:#fff;}.cls-2{fill:#f2d55d;stroke:#000;stroke-miterlimit:10;stroke-width:3px;}</style></defs><path class="cls-2" d="m29.75,132.7l91,34-13-84,65,45,26-99,37,91,48-51,9,60,113-57-66,99,91,25-74,55,34,87-71-30v92l-68-78-56,81-16-75-105,94,53-142-109-24,37.15-10.05c15.95-4.32,31.9-8.63,47.85-12.95-24.67-33.33-49.33-66.67-74-100Z"/><polygon class="cls-1" points="198.58 62.2 176.65 149.91 119.18 106.05 129.92 176.97 54.59 151.78 118.48 237.63 51.39 251.73 138.51 271.22 92.74 386 184.28 307.62 198.58 366.18 249.12 301.08 306.33 372 306.33 288.45 366.4 316.95 337.8 243.23 405.5 198.44 319.68 178.84 370.22 101.39 274.86 151.78 274.05 91.58 239.58 132.18 228.45 145.09 198.58 62.2"/><g><path d="m181.55,224.57c-1.36.21-3.46.42-6.32.64-2.78.22-4.89.46-6.31.69l-1.95.3c.45,2.52,1.33,6.59,2.65,12.21,1.22,5.24,2.06,9.32,2.51,12.26.1.64.31,1.6.64,2.89.33,1.28.54,2.25.65,2.91.19,1.25.16,2.35-.11,3.31-.33,1.29-1.03,2.02-2.11,2.19-.73.11-1.43-.04-2.1-.46s-1.06-1.04-1.19-1.84c-.04-.28-.06-.7-.05-1.26,0-.56-.01-.98-.05-1.26-.14-.9-.41-2.24-.8-4.01-.4-1.78-.67-3.13-.81-4.04-.41-2.62-1.19-6.27-2.34-10.96-1.23-5.07-2.05-8.71-2.45-10.94l-2.5.41c-4.01.62-7.21.81-9.6.58-1.54-.16-2.43-.95-2.65-2.38-.12-.75.02-1.45.41-2.09.45-.73,1.11-1.13,1.98-1.21.65-.06,2.14-.12,4.48-.19,1.87-.06,3.37-.18,4.51-.36,1.1-.17,2.76-.45,5-.84,2.23-.39,3.89-.67,4.99-.84,1.41-.22,3.52-.44,6.33-.67,2.81-.23,4.92-.45,6.33-.67.79-.12,1.49.05,2.11.51s.99,1.09,1.11,1.9c.12.79-.04,1.49-.49,2.12-.45.62-1.07,1-1.86,1.12Z"/><path d="m191.44,222.96c-.88.14-1.69-.06-2.43-.58-.74-.52-1.18-1.23-1.31-2.11s.07-1.68.61-2.4c.54-.72,1.26-1.15,2.14-1.29.88-.14,1.69.06,2.41.58.73.53,1.16,1.23,1.3,2.11.14.88-.06,1.68-.6,2.4s-1.24,1.15-2.12,1.29Zm4.69,22.14c.17,1.1.46,2.74.86,4.92.4,2.18.69,3.82.86,4.92.12.81-.02,1.51-.44,2.1-.42.59-1.03.95-1.83,1.07-.79.12-1.47-.04-2.06-.47-.58-.43-.94-1.06-1.06-1.86-.17-1.1-.46-2.74-.86-4.92-.4-2.18-.69-3.82-.86-4.92-.27-1.72-.51-3.89-.72-6.49-.21-2.6-.45-4.77-.72-6.49-.13-.83.02-1.53.45-2.12.43-.59,1.03-.95,1.82-1.07.79-.12,1.48.04,2.06.47.58.44.94,1.07,1.07,1.89.27,1.72.51,3.89.72,6.49.21,2.6.46,4.77.72,6.49Z"/><path d="m211,233.45l1.7,13.73c.22,1.45.48,3.59.77,6.42.1,1.86-.66,2.92-2.27,3.17-1.8.28-2.84-.52-3.13-2.39-.34-2.22-.76-5.57-1.24-10.04-.48-4.48-.9-7.83-1.24-10.04-.45-2.9-.91-6.22-1.4-9.96-.48-3.75-.95-7.07-1.4-9.96-.28-1.83.47-2.89,2.27-3.17,1.82-.28,2.87.5,3.15,2.33.45,2.9.91,6.22,1.4,9.96.48,3.75.95,7.07,1.4,9.96Z"/><path d="m235.81,252.94c-2.81.43-5.44.28-7.9-.47-.45.97-1.1,1.52-1.94,1.65-.7.11-1.33-.04-1.89-.46-.56-.41-.9-.98-1.01-1.72-.07-.48-.16-1.19-.26-2.13-.1-.94-.18-1.65-.26-2.13-.3-1.94-.8-4.85-1.5-8.71-.7-3.86-1.2-6.77-1.5-8.71-.21-1.34-.59-3.88-1.15-7.61s-.94-6.28-1.15-7.64c-.17-1.1-.09-2.13.23-3.08.43-1.21,1.18-1.9,2.24-2.06,1.37-.21,2.19.48,2.43,2.08.04.26.05.64.04,1.15-.01.51,0,.89.04,1.15l.85,6.04,1.03,7.02c1.43-1.33,2.82-2.37,4.17-3.14,1.36-.76,2.67-1.24,3.93-1.44,3.94-.61,7.38.41,10.3,3.06,2.75,2.49,4.44,5.8,5.08,9.94.65,4.18-.15,7.94-2.4,11.27-2.25,3.33-5.38,5.31-9.39,5.93Zm-2.79-25c-1.5.23-2.98.89-4.43,1.98-.7.54-1.88,1.65-3.54,3.33l.68,4.77.69,4.29.72,4.51c.94.27,2.26.59,3.95.97,1.19.17,2.49.15,3.9-.07,2.66-.41,4.7-1.68,6.11-3.82,1.42-2.13,1.91-4.59,1.48-7.38-.42-2.73-1.46-4.91-3.12-6.53-1.79-1.75-3.94-2.43-6.46-2.04Z"/><path d="m276.17,229.07c.2,1.32.52,3.3.95,5.94.43,2.64.74,4.62.95,5.94.06.4.19,1.01.38,1.83.19.82.32,1.43.38,1.83.12.79-.04,1.48-.5,2.06-.46.59-1.07.94-1.84,1.06-1.41.22-2.45-.51-3.1-2.2-2.11,1.54-4.66,2.55-7.64,3.01-2.4.37-4.47.15-6.22-.67-1.92-.9-3.22-2.46-3.9-4.66-1.47-4.75-2.49-9.02-3.08-12.82-.39-2.51-.55-5.42-.5-8.71,0-1.63.76-2.57,2.24-2.8.79-.12,1.49.03,2.1.45.61.42.98,1.03,1.1,1.82.13.84.2,2.21.22,4.1.02,1.89.11,3.33.26,4.3.47,3.06.98,5.67,1.52,7.82.54,2.15,1.11,3.86,1.72,5.11.66.24,1.29.4,1.91.48.61.08,1.2.08,1.77,0,2.46-.38,4.99-1.17,7.6-2.39l-.89-5.58-.88-5.33c-.61-3.96-.97-7.43-1.07-10.39-.06-1.72.7-2.7,2.28-2.94.79-.12,1.49.03,2.1.46.61.43.96,1.04,1.04,1.81l1.11,10.47Z"/><path d="m307.08,215.88c.2,2.73.5,5.44.92,8.14.94,6.11,1.94,10.67,2.99,13.7.08.25.12.46.15.62.11.73-.05,1.38-.49,1.93-.44.56-1,.89-1.68.99-1.14.18-2.1-.52-2.89-2.09-1.17,1.18-2.43,2.12-3.77,2.84-1.34.71-2.79,1.19-4.33,1.43-3.8.59-7.14-.19-10.02-2.34-2.97-2.19-4.76-5.31-5.39-9.36-.76-4.9-.07-9.02,2.07-12.37,2.14-3.35,5.28-5.35,9.42-5.99,2.13-.33,3.82-.25,5.08.23l2.88,1.5c-.94-7.76-1.44-13-1.5-15.74-.01-1.67.69-2.61,2.12-2.83,1.67-.26,2.64.5,2.92,2.28.39,2.55.9,8.24,1.51,17.06Zm-12.1,2.6c-3.08.48-5.25,1.75-6.51,3.81-1.26,2.06-1.6,4.93-1.04,8.59.37,2.37,1.52,4.27,3.46,5.72,1.94,1.45,4.04,2,6.3,1.65,1.54-.24,2.8-.72,3.77-1.46.57-.43,1.47-1.34,2.7-2.75.24-.28.46-.61.66-.98l-.82-4.75-.46-3.2-.45-3.25c-.93-1.38-2.03-2.35-3.29-2.91-1.27-.56-2.71-.72-4.33-.47Z"/><path d="m317.43,196.45l4.73,30.61c.25,1.63-.44,2.58-2.07,2.83-1.63.25-2.58-.44-2.83-2.07-.12-.75-.31-1.87-.59-3.36-.28-1.49-.47-2.6-.58-3.33-.41-2.66-1-6.65-1.78-11.96-.77-5.32-1.37-9.3-1.78-11.96-.25-1.63.44-2.57,2.07-2.83,1.63-.25,2.57.44,2.83,2.07Zm6.37,41.06c.1.66-.07,1.27-.52,1.84-.45.57-1,.9-1.66,1-.73.11-1.54-.25-2.42-1.09-.85-.79-1.34-1.56-1.46-2.31-.1-.66.07-1.27.52-1.83.45-.56,1.01-.89,1.69-.99.71-.11,1.52.25,2.42,1.09.84.79,1.31,1.55,1.42,2.29Z"/></g></svg>